<svg width="341" height="214" fill="none" xmlns="http://www.w3.org/2000/svg"><path d="M42.679 189.331c-3.18-3.182-4.904-12.267.992-18.164 0 0-.984-5.157 2.702-8.845 3.684-3.683 38.548-9.321 69.132-11.288 0 0 32.023-26.751 56.747-28.26 0 0 23.669-4.901 59.695 1.73 17.641 3.246 43.662 18.413 51.71 20.513 0 0 19.029-1.196 20.437 1.474.453.858.884 3.627.46 14.852 0 0 13.11 20.785 1.89 28.08l-263.765-.092z" fill="#fff"/><path d="M305.35 190.166a1.36 1.36 0 01.4-1.882c2.898-1.908 3.894-4.706 3.921-8.133.029-5.973-3.479-13.253-5.253-16.422-.589-1.062-.965-1.658-.965-1.659a1.344 1.344 0 01-.206-.778c.116-3.221.164-5.737.164-7.701.029-4.318-.297-6.026-.432-6.389-.011-.008-.027-.016-.045-.029a3.073 3.073 0 00-.601-.251c-.578-.189-1.451-.356-2.473-.477-2.052-.25-4.719-.335-7.272-.332-4.582-.003-8.788.263-8.798.263l-.431-.04c-4.345-1.156-12.756-5.452-22.48-9.908-9.68-4.449-20.553-9.011-29.133-10.584-14.449-2.662-26.892-3.454-36.586-3.451-10.75-.003-18.12.971-21.104 1.453-.994.159-1.48.263-1.482.263l-.192.025c-17.915 1.039-40.565 16.233-50.625 23.788-3.366 2.513-5.325 4.154-5.331 4.158a1.369 1.369 0 01-.786.314c-26.635 1.695-56.774 6.281-65.971 9.744-1.285.466-2.143.975-2.286 1.151-2.044 2.028-2.425 4.658-2.425 6.287 0 .428.028.78.052 1.015.027.234.044.323.044.323.084.442-.057.9-.377 1.22-2.537 2.538-3.5 5.716-3.505 8.725-.024 3.244 1.213 6.248 2.519 7.513a1.36 1.36 0 11-1.926 1.922c-2.004-2.044-3.294-5.543-3.313-9.435-.006-3.395 1.061-7.128 3.837-10.162-.03-.3-.05-.677-.05-1.121 0-2.004.453-5.437 3.22-8.211.775-.746 1.814-1.219 3.258-1.775 1.439-.539 3.258-1.077 5.426-1.624 4.323-1.092 10.008-2.209 16.538-3.272 12.925-2.103 29.13-3.99 44.344-4.984 1.652-1.348 9.066-7.291 18.914-13.394 11.164-6.901 25.401-14.056 38.182-14.891.976-.193 9.327-1.753 23.039-1.755 9.845.002 22.451.804 37.08 3.498 9.061 1.674 20.019 6.317 29.776 10.789 9.534 4.384 18.019 8.643 21.827 9.693a160.39 160.39 0 018.745-.259c3.943.013 8.07.157 10.578.939.831.298 1.619.578 2.18 1.529.549 1.149.759 2.745.788 7.732 0 1.926-.048 4.346-.16 7.403 1.151 1.927 6.37 10.919 6.418 19.157.026 3.946-1.336 7.945-5.158 10.415a1.371 1.371 0 01-.742.218c-.444 0-.881-.216-1.142-.618z" fill="#333"/><path d="M162.584 131.448c-10.404 2.094-31.022 15.951-36.658 21.776-.19.19-.365.374-.519.547 26.922-.003 76.289-.459 103.574-2.103 8.955-.528 15.658-1.244 17.956-1.983a3.773 3.773 0 00.413-.659c.309-.594.652-1.47.98-2.449.655-1.967 1.247-4.373 1.609-6.123.188-.869.31-1.656.352-1.987a3.29 3.29 0 00-.513-.45c-.577-.432-1.554-.991-2.849-1.58-2.592-1.186-6.464-2.53-11.325-3.781-9.725-2.5-23.429-4.636-39.149-4.636-10.571 0-22.059.965-33.871 3.428zm-38.595 25.046v-1.81 1.81c-.387-.005-.81-.039-1.285-.339-.493-.29-.816-.988-.783-1.471.021-.666.255-1.066.503-1.489.259-.413.587-.824.991-1.274.806-.893 1.908-1.921 3.26-3.067 2.703-2.285 6.396-5.026 10.501-7.756 8.231-5.453 17.983-10.855 24.854-12.31 12.019-2.511 23.689-3.489 34.425-3.491 13.972.002 26.362 1.661 35.911 3.789 9.574 2.154 16.188 4.662 19.039 6.751.782.646 1.522 1.173 1.623 2.461-.029.956-.481 3.162-1.151 5.817-.693 2.617-1.505 5.317-2.551 6.913-.33.456-.654.914-1.403 1.195-2.909.951-9.531 1.591-18.779 2.16-9.215.557-20.889.974-33.369 1.285-24.95.624-53.083.826-70.963.826h-.823z" fill="#333"/><path d="M237.264 153.681a1.353 1.353 0 01-1.092-1.581l3.584-19.498a1.36 1.36 0 012.676.49l-3.587 19.499a1.358 1.358 0 01-1.581 1.09zM119.52 189.527c-.965-7.359-1.351-13.004-1.351-17.463-.03-10.409 2.214-14.53 3.805-18.101a1.36 1.36 0 011.792-.697c.689.303.999 1.105.695 1.791-1.626 3.741-3.536 6.894-3.569 17.007 0 4.302.373 9.835 1.325 17.11a1.357 1.357 0 01-1.352 1.535c-.673 0-1.26-.498-1.345-1.182zM184.378 188.965c.006-36.414 12.361-62.268 12.411-62.38v.002a1.363 1.363 0 011.815-.642c.675.323.963 1.138.64 1.814.002.004-.743 1.546-1.876 4.483-1.138 2.937-2.66 7.236-4.181 12.657-3.045 10.841-6.09 26.168-6.09 44.066 0 .75-.608 1.358-1.359 1.358-.753 0-1.36-.608-1.36-1.358zM241.799 172.222a1.357 1.357 0 010-1.921c3.71-3.662 4.582-10.09 4.562-14.511 0-1.376-.076-2.546-.151-3.367-.074-.82-.142-1.268-.142-1.269v.001a1.351 1.351 0 011.133-1.551 1.359 1.359 0 011.554 1.132c.003.049.323 2.111.327 5.054-.024 4.704-.756 11.765-5.359 16.432a1.353 1.353 0 01-.962.398 1.35 1.35 0 01-.962-.398zM42.39 171.139c0-.752.61-1.362 1.361-1.362 3.403.003 7.993-.626 12.128-1.719 3.91-1.011 7.447-2.527 9.105-4.014-.347-.104-.832-.21-1.402-.294-1.653-.244-4.016-.329-6.461-.327-4.14-.002-8.517.232-10.665.234a1.36 1.36 0 110-2.721c1.994.001 6.44-.236 10.665-.236 2.196 0 4.339.063 6.115.263 1.795.262 3.144.39 4.268 1.447.313.325.58.859.573 1.416-.016.834-.439 1.409-.905 1.887-2.28 2.238-6.232 3.803-10.602 4.975-4.363 1.149-9.094 1.809-12.819 1.813-.75 0-1.36-.611-1.36-1.362zM292.217 159.186c-1.25-.98-2.248-2.443-2.236-4.239.035-1.647 1.234-2.629 2.407-3.265 1.219-.659 2.714-1.111 4.269-1.464 3.111-.698 6.4-.956 7.809-.959a1.36 1.36 0 110 2.719c-.977-.003-3.611.191-6.137.669-2.521.428-5.03 1.378-5.498 2.052-.137.172-.128.212-.131.248.01.783.365 1.412 1.215 2.116.845.677 2.137 1.276 3.543 1.718 2.809.894 6.095 1.202 7.145 1.194a1.362 1.362 0 010 2.722c-2.101-.052-8.607-.6-12.386-3.511zM273.569 161.56a3.064 3.064 0 003.062 3.06 3.063 3.063 0 003.061-3.06 3.064 3.064 0 00-3.061-3.062 3.065 3.065 0 00-3.062 3.062zm-2.721 0a5.785 5.785 0 015.783-5.783 5.785 5.785 0 015.782 5.783 5.785 5.785 0 01-5.782 5.782 5.785 5.785 0 01-5.783-5.782z" fill="#333"/><path d="M272.211 162.951a1.36 1.36 0 110-2.719h4.418a1.36 1.36 0 011.364 1.359c0 .75-.61 1.36-1.364 1.36h-4.418zM171.904 162.986a1.965 1.965 0 001.958 1.955 1.96 1.96 0 001.956-1.955 1.963 1.963 0 00-1.956-1.958 1.967 1.967 0 00-1.958 1.958zm-2.717 0a4.675 4.675 0 119.35 0 4.676 4.676 0 01-9.35 0z" fill="#333"/><path d="M169.424 164.359a1.361 1.361 0 110-2.721h12.281a1.36 1.36 0 110 2.721h-12.281zM232.863 161.063a1.963 1.963 0 001.958 1.958 1.956 1.956 0 10-1.958-1.958zm-2.717 0a4.674 4.674 0 119.347 0 4.675 4.675 0 11-9.347 0z" fill="#333"/><path d="M230.382 162.437a1.359 1.359 0 01-1.361-1.361c0-.752.607-1.36 1.361-1.36h12.281a1.36 1.36 0 110 2.721h-12.281zM140.681 146.508a1.358 1.358 0 01-1.316-1.403c.091-2.518 1.01-5.682 1.018-5.735.2-.722.952-1.143 1.676-.938.722.2 1.144.952.944 1.677 0 0-.216.751-.438 1.787-.226 1.026-.453 2.33-.482 3.298a1.357 1.357 0 01-1.356 1.314h-.046z" fill="#333"/><path d="M137.244 152.933l-1.69 1.671a2.056 2.056 0 11-2.895-2.919l1.691-1.676 2.894 2.924z" fill="#fff"/><path d="M134.154 156.558a3.421 3.421 0 01-2.434-1.012 3.427 3.427 0 01-.985-2.402c0-.876.34-1.767 1.012-2.428l1.692-1.673a1.361 1.361 0 011.924.01 1.357 1.357 0 01-.012 1.921l-1.695 1.68a.67.67 0 00-.203.49c.002.179.064.35.203.487a.7.7 0 00.986.008l1.694-1.675v.002a1.358 1.358 0 011.911 1.932l-1.692 1.676a3.422 3.422 0 01-2.396.984h-.005z" fill="#333"/><path d="M143.607 144.476c-.922 0-8.934 2.145-8.934 5.804 0 3.657 9.237 3.843 10.408 2.669.831-.827 1.66-8.473-1.474-8.473z" fill="#fff"/><path d="M134.246 152.776c-.619-.604-1.082-1.505-1.072-2.495.053-2.195 1.642-3.592 3.22-4.597 1.628-1.017 3.498-1.703 4.904-2.119.985-.276 1.569-.429 2.171-.449v2.723c-.039.005-.103.016-.183.029-.16.032-.384.081-.648.147-.522.136-1.205.341-1.93.607-1.45.528-3.076 1.344-3.979 2.2-.616.581-.842 1.068-.834 1.459.006.211.046.326.275.571.224.229.663.499 1.234.715 1.153.442 2.809.668 4.211.665 1.012.022 1.972-.154 2.323-.261l.001-.003c.058-.162.128-.429.189-.743.122-.636.21-1.477.21-2.308.006-.984-.134-1.966-.375-2.521-.297-.595-.336-.538-.494-.56V143.116c1.535-.022 2.617 1.159 3.009 2.238.45 1.112.575 2.354.583 3.563-.012 1.535-.217 2.953-.557 3.953-.136.348-.231.645-.605 1.049-.647.577-1.22.677-1.923.837-.694.131-1.496.197-2.361.197-2.508-.053-5.482-.413-7.369-2.177z" fill="#333"/><path d="M305.621 189.346H283.12c-1.575-12.529-12.259-22.221-25.217-22.221-12.956 0-22.584 6.65-25.955 22.221H116.545c-1.576-14.727-12.364-22.221-25.323-22.221-12.958 0-23.638 9.692-25.217 22.221H43.413c-2.016 0-3.647 1.237-3.647 2.764 0 1.525 1.63 2.764 3.647 2.764h28.539a19.505 19.505 0 01-.144-2.324c0-1.09.094-2.161.267-3.204 1.53-9.197 9.517-16.209 19.147-16.209 9.63 0 17.621 7.012 19.148 16.209.173 1.043.271 2.114.271 3.204 0 .788-.053 1.562-.144 2.324h128.134a19.36 19.36 0 01-.143-2.324c0-1.09.096-2.161.267-3.204 1.529-9.197 9.519-16.209 19.148-16.209 9.631 0 17.618 7.012 19.148 16.209.173 1.043.267 2.114.267 3.204 0 .788-.053 1.562-.144 2.324h28.447c2.012 0 3.646-1.239 3.646-2.764 0-1.527-1.634-2.764-3.646-2.764z" fill="#fff"/><path d="M283.266 196.232h-6.046a1.36 1.36 0 01-1.351-1.522c.085-.714.133-1.431.135-2.16a18.804 18.804 0 00-.248-2.981c-1.423-8.55-8.852-15.077-17.807-15.076-8.957-.001-16.385 6.526-17.806 15.073-.16.976-.248 1.97-.25 2.984.002.729.048 1.446.135 2.157a1.367 1.367 0 01-1.351 1.525H110.543a1.362 1.362 0 01-1.353-1.52 17.9 17.9 0 00-.115-5.143c-1.421-8.55-8.851-15.077-17.806-15.076-8.956-.001-16.386 6.526-17.804 15.073-.165.976-.252 1.97-.252 2.984 0 .726.05 1.445.132 2.16.047.386-.072.773-.33 1.065-.26.289-.63.457-1.017.457H43.459c-1.287-.001-2.476-.387-3.4-1.085-.921-.688-1.608-1.77-1.608-3.038 0-1.267.687-2.351 1.607-3.039.925-.698 2.114-1.082 3.401-1.087h21.42c2.166-12.622 13.153-22.217 26.39-22.217 13.107-.082 24.466 7.601 26.526 22.217h113.114c1.791-7.457 5.088-12.979 9.608-16.643 4.73-3.844 10.727-5.579 17.432-5.574 13.237 0 24.223 9.597 26.389 22.22h21.329v2.716h-22.501a1.354 1.354 0 01-1.347-1.189c-1.494-11.854-11.608-21.031-23.87-21.03-6.253.005-11.554 1.593-15.717 4.97-4.159 3.376-7.265 8.61-8.908 16.179a1.36 1.36 0 01-1.33 1.074H116.591c-.693 0-1.28-.527-1.352-1.215-1.566-14.05-11.523-20.924-23.97-21.008-12.266-.001-22.377 9.176-23.87 21.03a1.362 1.362 0 01-1.347 1.193H43.459c-.731-.004-1.367.23-1.759.533-.4.313-.531.61-.531.87 0 .258.131.556.531.87.392.302 1.028.536 1.76.533h27.057a21.26 21.26 0 01-.024-.962c0-1.17.103-2.316.287-3.427 1.637-9.845 10.184-17.346 20.489-17.349 10.306.003 18.853 7.504 20.485 17.347a20.473 20.473 0 01.266 4.391h125.175a20.423 20.423 0 01.264-4.389c1.635-9.845 10.186-17.346 20.49-17.349 10.305.003 18.853 7.504 20.488 17.349a21.196 21.196 0 01.264 4.389h26.966c.725.003 1.364-.231 1.756-.533.4-.314.53-.61.53-.87s-.13-.557-.53-.87c-.392-.303-1.031-.537-1.756-.537v-2.716c1.284.002 2.473.386 3.398 1.084.919.688 1.607 1.772 1.606 3.039.001 1.266-.687 2.35-1.606 3.038-.925.698-2.114 1.084-3.398 1.085h-22.401z" fill="#333"/><path d="M110.162 192.666c0 10.583-8.575 19.16-19.162 19.16-10.584 0-19.16-8.577-19.16-19.16 0-10.587 8.576-19.164 19.16-19.164 10.587 0 19.162 8.577 19.162 19.164z" fill="#fff"/><path d="M73.246 192.665c.019 9.832 7.966 17.78 17.8 17.8 9.832-.02 17.784-7.968 17.801-17.8-.017-9.834-7.969-17.786-17.801-17.802-9.834.016-17.781 7.968-17.8 17.802zm-2.72 0c0-11.337 9.181-20.521 20.52-20.523 11.337.002 20.519 9.186 20.521 20.523-.002 11.335-9.184 20.519-20.521 20.519-11.339 0-20.52-9.184-20.52-20.519z" fill="#333"/><path d="M79.81 192.639c.01 6.215 5.042 11.246 11.257 11.254 6.217-.008 11.246-5.039 11.255-11.254-.009-6.216-5.041-11.247-11.255-11.256-6.215.009-11.247 5.04-11.257 11.256zm-2.72 0c0-7.719 6.26-13.979 13.977-13.979 7.72 0 13.976 6.26 13.976 13.979 0 7.718-6.256 13.973-13.976 13.977-7.718-.004-13.976-6.259-13.976-13.977z" fill="#333"/><path d="M89.66 205.252v-25.233a1.358 1.358 0 112.718 0v25.233c-.001.752-.61 1.36-1.362 1.36-.75 0-1.357-.608-1.357-1.36z" fill="#333"/><path d="M101.314 200.152L79.459 187.53a1.36 1.36 0 111.362-2.356l21.856 12.622a1.36 1.36 0 01-1.363 2.356z" fill="#333"/><path d="M78.96 199.656a1.367 1.367 0 01.498-1.86l21.854-12.622a1.36 1.36 0 011.364 2.356L80.82 200.152a1.366 1.366 0 01-1.86-.496z" fill="#333"/><path d="M97.246 192.627a6.226 6.226 0 01-6.233 6.226 6.229 6.229 0 110-12.456 6.23 6.23 0 016.233 6.23z" fill="#fff"/><path d="M86.19 192.627a4.874 4.874 0 004.869 4.865 4.873 4.873 0 004.87-4.865 4.871 4.871 0 00-4.87-4.869 4.872 4.872 0 00-4.87 4.869zm-2.721 0a7.59 7.59 0 017.59-7.59 7.588 7.588 0 110 15.177 7.592 7.592 0 01-7.59-7.587z" fill="#333"/><path d="M277.283 192.666c0 10.583-8.574 19.16-19.161 19.16-10.584 0-19.16-8.577-19.16-19.16 0-10.587 8.576-19.164 19.16-19.164 10.587 0 19.161 8.577 19.161 19.164z" fill="#fff"/><path d="M240.366 192.666c.019 9.831 7.969 17.779 17.803 17.797 9.833-.018 17.783-7.966 17.8-17.797-.017-9.835-7.967-17.787-17.8-17.803-9.834.016-17.784 7.968-17.803 17.803zm-2.718 0c0-11.337 9.186-20.524 20.521-20.524 11.334 0 20.523 9.187 20.523 20.524 0 11.334-9.189 20.518-20.523 20.52-11.335-.002-20.521-9.186-20.521-20.52z" fill="#333"/><path d="M246.933 192.639c.011 6.215 5.04 11.246 11.257 11.254 6.217-.008 11.244-5.039 11.255-11.254-.011-6.216-5.042-11.245-11.255-11.258-6.217.013-11.246 5.042-11.257 11.258zm-2.719 0c.001-7.719 6.257-13.976 13.976-13.979 7.718.003 13.976 6.26 13.976 13.979 0 7.718-6.258 13.975-13.976 13.977-7.719-.002-13.975-6.259-13.976-13.977z" fill="#333"/><path d="M256.78 205.255v-25.236a1.36 1.36 0 012.72 0v25.236c0 .752-.61 1.361-1.362 1.361a1.359 1.359 0 01-1.358-1.361z" fill="#333"/><path d="M268.438 200.152l-21.856-12.623a1.358 1.358 0 01-.498-1.857 1.359 1.359 0 011.859-.498l21.857 12.622c.65.378.876 1.209.495 1.859a1.358 1.358 0 01-1.857.497z" fill="#333"/><path d="M246.082 199.655a1.365 1.365 0 01.501-1.859l21.853-12.622a1.354 1.354 0 011.856.498c.381.65.156 1.482-.494 1.857l-21.858 12.623a1.336 1.336 0 01-.677.183 1.37 1.37 0 01-1.181-.68z" fill="#333"/><path d="M264.358 192.631a6.232 6.232 0 01-6.227 6.235 6.231 6.231 0 01-6.227-6.235 6.231 6.231 0 016.227-6.234 6.232 6.232 0 016.227 6.234z" fill="#fff"/><path d="M253.31 192.632a4.874 4.874 0 004.868 4.874 4.875 4.875 0 000-9.748 4.875 4.875 0 00-4.868 4.874zm-2.719 0a7.592 7.592 0 017.587-7.595c4.193.002 7.586 3.403 7.59 7.595-.004 4.192-3.397 7.593-7.59 7.595a7.59 7.59 0 01-7.587-7.595zM1.812 213.609A1.81 1.81 0 010 211.794c0-1.001.81-1.81 1.812-1.81H338.59a1.812 1.812 0 110 3.625H1.812zM250.637 26.541a1.36 1.36 0 010-2.718h15.638a1.36 1.36 0 110 2.718h-15.638zM272.771 26.543a1.36 1.36 0 110-2.72h4.078a1.36 1.36 0 110 2.72h-4.078zM20.492 131.485a1.359 1.359 0 010-2.718h12.92a1.36 1.36 0 110 2.718h-12.92zM27.998 135.896a1.361 1.361 0 110-2.721H40.91a1.36 1.36 0 110 2.721H27.998zM162.483 40a1.359 1.359 0 110-2.72h12.918a1.36 1.36 0 010 2.72h-12.918zM169.985 44.457a1.36 1.36 0 110-2.721h12.918a1.36 1.36 0 010 2.72h-12.918zM291.714 106.212a1.358 1.358 0 110-2.719h31.109a1.36 1.36 0 110 2.719h-31.109zM330.167 106.212c-.754 0-1.36-.608-1.36-1.359s.606-1.36 1.36-1.36h5.439a1.36 1.36 0 110 2.719h-5.439zM70.197 15.662a1.36 1.36 0 010-2.718h31.109c.75 0 1.36.61 1.36 1.36 0 .753-.61 1.358-1.36 1.358h-31.11zM108.65 15.664a1.36 1.36 0 110-2.72h5.439a1.36 1.36 0 110 2.72h-5.439zM43.704 72.26v-9.094c0-.75.61-1.36 1.364-1.36.75 0 1.357.61 1.357 1.36v9.094a1.36 1.36 0 01-2.721 0z" fill="#333"/><path d="M40.56 69.075c-.754 0-1.359-.61-1.359-1.359 0-.752.605-1.362 1.36-1.362h9.093a1.36 1.36 0 110 2.721H40.56zM223.676 5.44a2.722 2.722 0 002.718 2.72 2.726 2.726 0 002.721-2.72 2.726 2.726 0 00-2.721-2.719 2.72 2.72 0 00-2.718 2.72zm-2.721 0A5.439 5.439 0 01226.394 0a5.441 5.441 0 015.44 5.44h.002a5.443 5.443 0 01-5.442 5.44 5.439 5.439 0 01-5.439-5.44zM112.445 100.82a2.728 2.728 0 002.724 2.72 2.728 2.728 0 002.721-2.72h-.003a2.723 2.723 0 00-2.718-2.719 2.728 2.728 0 00-2.724 2.719zm-2.717 0a5.44 5.44 0 1110.88.001 5.44 5.44 0 01-10.88-.001z" fill="#333"/></svg>