<svg width="16" height="16" fill="none" xmlns="http://www.w3.org/2000/svg"><g clip-path="url(#clip0)"><path d="M8 3.231c-3.057 0-5.83 1.673-7.875 4.39a.633.633 0 000 .755C2.171 11.096 4.943 12.77 8 12.77c3.057 0 5.83-1.673 7.875-4.39a.633.633 0 000-.755C13.829 4.904 11.057 3.23 8 3.23zm.22 8.127a3.367 3.367 0 01-3.578-3.577A3.373 3.373 0 017.78 4.64a3.367 3.367 0 013.577 3.578 3.383 3.383 0 01-3.139 3.14zm-.102-1.551a1.81 1.81 0 01-1.925-1.925A1.82 1.82 0 017.885 6.19 1.81 1.81 0 019.81 8.115a1.82 1.82 0 01-1.692 1.692z" fill="#97A9B6"/></g><defs><clipPath id="clip0"><path fill="#fff" d="M0 0h16v16H0z"/></clipPath></defs></svg>