<svg width="648" height="542" fill="none" xmlns="http://www.w3.org/2000/svg"><path d="M68.092 369.225c-3.833-3.835-8.57-14.775-1.47-21.876 0 0-1.183-6.211 3.254-10.653 4.438-4.435 30.77-13.607 51.481-15.973 0 0 48.521-31.658 71.895-31.658 0 0 75.786-5.021 118.981 2.669 0 0 7.057.584 7.057 8.276 0 0 15.973 20.118 14.497 40.831 0 0 6.912 19.708-6.605 28.495l-259.09-.111z" fill="#fff"/><path d="M325.891 370.25a1.642 1.642 0 01.482-2.27c6.052-3.938 7.603-10.242 7.625-15.964.004-4.352-.953-8.206-1.426-9.817-.156-.533-.248-.797-.248-.797a1.636 1.636 0 01-.09-.657c.062-.881.092-1.756.092-2.63.028-14.173-7.998-28.032-12.033-33.99-1.34-1.988-2.2-3.073-2.204-3.074a1.644 1.644 0 01-.356-1.021c-.028-2.919-1.073-4.317-2.241-5.271-1.178-.934-2.616-1.271-3.133-1.347a13.666 13.666 0 00-.178-.025l-.153-.019c-18.551-3.308-43.366-4.259-65.469-4.256-14.429 0-27.718.4-37.389.804-9.674.403-15.71.802-15.726.805l-.11.003c-8.239-.029-20.482 4.326-32.328 9.863-11.869 5.524-23.435 12.176-30.772 16.61-4.893 2.954-7.891 4.912-7.898 4.916a1.62 1.62 0 01-.709.257c-15.299 1.74-33.952 7.327-43.996 11.809-3.331 1.462-5.756 2.905-6.512 3.696-2.46 2.445-2.917 5.612-2.917 7.576 0 .516.032.938.06 1.221.03.284.051.391.051.391a1.638 1.638 0 01-.45 1.464c-2.332 2.344-3.175 5.055-3.185 7.894-.04 4.69 2.593 9.646 4.657 11.663a1.638 1.638 0 01-2.316 2.316c-2.72-2.768-5.578-8.129-5.617-13.979-.011-3.275.992-6.737 3.58-9.617-.03-.36-.06-.817-.06-1.353.004-2.416.547-6.548 3.88-9.891 1.461-1.428 3.993-2.796 7.494-4.373 3.492-1.556 7.89-3.207 12.798-4.792 9.699-3.131 21.362-6.007 31.777-7.237 2.023-1.301 13.291-8.491 26.991-15.695 15.149-7.931 33.078-15.947 45.428-16.017 1.379-.089 25.129-1.61 53.269-1.61 22.198.003 47.106.937 66.027 4.301.499.061 2.258.319 4.129 1.482 2.05 1.24 4.148 3.812 4.288 7.859 2.245 2.987 14.542 19.969 14.6 38.637 0 .841-.026 1.687-.08 2.537.399 1.248 1.745 5.84 1.751 11.364.02 6.243-1.807 13.962-9.113 18.712-.279.18-.587.264-.895.264a1.64 1.64 0 01-1.375-.742z" fill="#333"/><path d="M126.712 326.449v.001-.001zm0 1.638v-1.637l.051-.001c2.357 0 88.695-.031 142.825-4.134 18.002-1.35 32.557-3.223 38.803-5.527 1.652-.58 2.661-1.267 2.829-1.538.256-.304.526-1.122.516-2.314.016-2.53-1.101-6.39-2.721-9.579-1.552-3.224-3.854-5.741-4.951-5.947-.829-.261-3.903-.627-8.156-.911-4.284-.293-9.898-.558-16.31-.782-12.824-.441-28.86-.708-43.995-.708-21.322-.015-41.075.559-47.012 1.84-15.127 3.152-51.275 22.527-55.705 25.242-1.698 1.002-4.849 3.003-6.33 4.358h.156v1.638zm-2.576 1.244c-.745-.231-1.638-1.192-1.589-2.22.08-1.309.723-1.919 1.337-2.619.652-.672 1.455-1.321 2.324-1.96 1.733-1.269 3.727-2.482 4.98-3.241 4.845-2.906 40.491-22.158 56.724-25.646 6.727-1.403 26.216-1.904 47.691-1.915 22.767 0 47.507.606 60.532 1.502 4.379.312 7.314.601 8.851 1.035 2.975.992 5.098 4.069 6.954 7.618 1.787 3.581 3.056 7.676 3.074 11.051-.012 1.585-.266 3.086-1.209 4.325-.977 1.2-2.395 1.889-4.289 2.605-1.899.692-4.294 1.308-7.157 1.881-5.718 1.148-13.285 2.118-22.11 2.952-17.641 1.667-40.276 2.78-62.729 3.524-44.883 1.486-89.019 1.502-90.754 1.502l-.054.003c-1.026-.011-1.817-.086-2.576-.397z" fill="#333"/><path d="M279.405 323.283l-5.527-29.027a1.637 1.637 0 013.218-.613l5.526 29.028a1.632 1.632 0 01-1.615 1.943 1.632 1.632 0 01-1.602-1.331zM135.783 369.01c-.938-7.164-1.32-13.646-1.32-19.458.002-18.311 3.791-29.905 5.983-34.885h.003a1.633 1.633 0 012.157-.84 1.631 1.631 0 01.838 2.155c-2.005 4.557-5.706 15.719-5.705 33.57 0 5.666.372 12.008 1.291 19.035a1.638 1.638 0 11-3.247.423zM207.605 368.938c-.239-2.798-.34-6.127-.34-9.826.004-24.592 4.479-65.63 4.482-65.661a1.639 1.639 0 011.806-1.453c.897.1 1.548.907 1.451 1.806-.001.025-1.116 10.245-2.232 23.546-1.116 13.291-2.231 29.642-2.23 41.762-.001 3.638.097 6.892.327 9.545a1.638 1.638 0 01-3.264.281z" fill="#333"/><path d="M275.624 348.658a1.638 1.638 0 010-2.317c3.73-3.685 4.777-9.692 4.761-14.713a42.53 42.53 0 00-.419-5.877c-.207-1.491-.408-2.351-.409-2.353l.001.002a1.639 1.639 0 013.191-.736c.017.075.909 3.944.914 8.964-.018 5.397-1.001 12.258-5.721 17.03a1.638 1.638 0 01-2.318 0zM66.67 349.017a1.64 1.64 0 01-1.64-1.638 1.64 1.64 0 011.64-1.638c8.157-.074 11.08-2.678 15.701-7.21a3.88 3.88 0 00.62-.759 2.564 2.564 0 00-.225-.116c-.518-.241-1.502-.483-2.67-.629-2.353-.302-5.44-.309-7.904-.309v.003a1.639 1.639 0 110-3.279c1.856.001 4.11.001 6.24.142 2.145.156 4.119.391 5.696 1.093.996.42 2.205 1.387 2.216 2.966-.033 1.291-.714 2.235-1.65 3.201-4.504 4.588-8.933 8.175-17.76 8.175l-.264-.002zM328.787 341.224c-1.361-1.333-1.81-3.293-1.827-6.277.009-2.409.153-4.102.629-5.488.432-1.381 1.55-2.503 2.799-2.847.815-.25 1.61-.288 2.437-.295.904 0 1.64.735 1.64 1.641 0 .902-.736 1.638-1.64 1.638-.691-.006-1.187.052-1.451.142-.266.097-.312.133-.458.319-.305.353-.706 1.878-.68 4.89-.014 2.686.525 3.687.8 3.893.212.246.832.402 2.132.388.243 0 .493-.003.756 0a1.638 1.638 0 110 3.275h-.756c-1.295-.015-2.958.017-4.381-1.279zM312.36 335.807a3.693 3.693 0 003.688 3.686 3.694 3.694 0 003.689-3.686 3.694 3.694 0 00-3.689-3.688 3.694 3.694 0 00-3.688 3.688zm-3.277 0a6.965 6.965 0 0113.929 0 6.964 6.964 0 01-13.929 0z" fill="#333"/><path d="M310.722 337.431a1.638 1.638 0 110-3.277h5.324c.907 0 1.638.73 1.638 1.638 0 .905-.731 1.639-1.638 1.639h-5.324zM190.848 338.752a2.362 2.362 0 002.356 2.354 2.359 2.359 0 002.357-2.354 2.361 2.361 0 00-2.357-2.358 2.365 2.365 0 00-2.356 2.358zm-3.274 0a5.635 5.635 0 015.63-5.634 5.634 5.634 0 015.632 5.634 5.63 5.63 0 11-11.262 0z" fill="#333"/><path d="M187.66 340.411a1.64 1.64 0 01-1.64-1.638c0-.908.733-1.639 1.64-1.639h14.794c.904 0 1.635.731 1.635 1.639 0 .902-.731 1.638-1.635 1.638H187.66zM263.651 335.19a2.361 2.361 0 002.356 2.355 2.36 2.36 0 002.356-2.355 2.36 2.36 0 00-2.356-2.357 2.362 2.362 0 00-2.356 2.357zm-3.275 0a5.637 5.637 0 015.631-5.634 5.637 5.637 0 015.633 5.634h-.001a5.633 5.633 0 01-5.632 5.633 5.64 5.64 0 01-5.631-5.633z" fill="#333"/><path d="M260.462 336.847a1.638 1.638 0 110-3.276h14.793a1.64 1.64 0 011.639 1.64 1.64 1.64 0 01-1.639 1.636h-14.793zM147.158 327.979c.004-5.955 1.432-17.096 1.435-17.136v.002a1.637 1.637 0 113.249.411c.003.018-1.415 11.193-1.408 16.723a1.64 1.64 0 01-1.64 1.636 1.636 1.636 0 01-1.636-1.636z" fill="#333"/><path d="M147.715 329.839l-2.036 2.015a2.477 2.477 0 01-3.487-3.522l2.037-2.015 3.486 3.522z" fill="#fff"/><path d="M144.018 334.227a4.105 4.105 0 01-2.925-1.22 4.096 4.096 0 01-1.189-2.895 4.08 4.08 0 011.218-2.923l2.036-2.017a1.637 1.637 0 012.315.011c.639.644.633 1.68-.01 2.315l-2.042 2.024a.811.811 0 00-.243.59c0 .217.077.422.242.59a.838.838 0 001.188.007l2.036-2.015a1.638 1.638 0 012.306 2.326l-2.037 2.014a4.103 4.103 0 01-2.886 1.193h-.009z" fill="#333"/><path d="M155.329 319.646c-1.107 0-10.762 2.583-10.762 6.99 0 4.404 11.125 4.629 12.539 3.217.996-.999 1.995-10.207-1.777-10.207z" fill="#fff"/><path d="M144.048 329.66c-.748-.726-1.307-1.812-1.294-3.006.065-2.643 1.983-4.324 3.883-5.537 1.959-1.222 4.212-2.052 5.906-2.552 1.183-.33 1.89-.515 2.611-.538v3.273l-.001.005a2.907 2.907 0 00-.218.037c-.193.035-.463.096-.777.176-.633.161-1.456.411-2.328.733-1.746.635-3.705 1.615-4.794 2.649-.744.7-1.012 1.285-1.005 1.754.011.256.058.395.332.688.271.278.795.603 1.489.863 1.385.532 3.383.803 5.071.801 1.219.026 2.377-.185 2.798-.314l.001-.005a6.55 6.55 0 00.227-.895c.149-.764.256-1.78.256-2.778.008-1.187-.164-2.366-.452-3.04-.359-.716-.404-.643-.599-.671v-3.276c1.852-.029 3.152 1.394 3.626 2.695.545 1.343.696 2.834.703 4.292-.01 1.847-.257 3.557-.674 4.764-.163.415-.275.774-.726 1.257-.779.701-1.467.815-2.313 1.009-.841.157-1.806.235-2.847.238-3.02-.062-6.604-.494-8.875-2.622z" fill="#333"/><path d="M326.378 369.271h-2.242c-1.9-15.09-14.767-26.761-30.373-26.761-15.609 0-28.475 11.671-30.373 26.761H137.589c-1.898-15.09-14.764-26.761-30.371-26.761s-28.473 11.671-30.371 26.761h-7.683c-2.427 0-4.394 1.49-4.394 3.329 0 1.838 1.967 3.33 4.394 3.33h14.844a23.549 23.549 0 01-.172-2.799c0-1.316.114-2.605.32-3.86 1.844-11.076 11.464-19.522 23.062-19.522s21.22 8.446 23.062 19.522a23.59 23.59 0 01.321 3.86c0 .947-.063 1.88-.173 2.799h140.123a23.528 23.528 0 01-.172-2.799c0-1.316.113-2.605.322-3.86 1.841-11.076 11.462-19.522 23.062-19.522 11.596 0 21.218 8.446 23.059 19.522.206 1.255.323 2.544.323 3.86 0 .947-.062 1.88-.173 2.799h9.406c2.426 0 4.392-1.492 4.392-3.33 0-1.839-1.966-3.329-4.392-3.329z" fill="#fff"/><path d="M263.098 377.522H130.253c-.467 0-.915-.201-1.227-.552a1.63 1.63 0 01-.398-1.281c.101-.863.158-1.729.16-2.603a21.935 21.935 0 00-.302-3.591c-1.71-10.295-10.659-18.157-21.443-18.154-10.787-.003-19.735 7.859-21.447 18.154a21.393 21.393 0 00-.137 6.194c.055.463-.091.93-.404 1.281-.309.351-.757.552-1.223.552l-7.28-.001h-7.564c-1.548-.002-2.98-.466-4.097-1.306-1.106-.828-1.937-2.132-1.934-3.659-.003-1.527.828-2.832 1.934-3.661 1.118-.84 2.55-1.304 4.097-1.305h6.27c2.61-15.203 15.838-26.761 31.785-26.764 15.947.003 29.171 11.56 31.783 26.761h122.976c2.61-15.201 15.837-26.758 31.785-26.761 15.943.003 29.173 11.561 31.784 26.764h.832v3.273h-2.243a1.636 1.636 0 01-1.626-1.433c-1.799-14.277-13.977-25.331-28.747-25.33-14.771-.001-26.952 11.053-28.747 25.33-.104.82-.8 1.433-1.625 1.433H137.414a1.635 1.635 0 01-1.625-1.433c-1.799-14.277-13.976-25.331-28.746-25.33-14.772-.001-26.95 11.053-28.748 25.33-.103.82-.8 1.433-1.622 1.433h-7.684c-.88-.002-1.646.28-2.118.645-.485.377-.638.734-.638 1.048 0 .312.153.669.638 1.047.472.364 1.239.644 2.118.642h13.06a25.16 25.16 0 01.315-5.288c1.973-11.856 12.264-20.888 24.679-20.894 12.412.006 22.705 9.038 24.676 20.894.223 1.339.346 2.718.346 4.129 0 .391-.011.775-.031 1.159h136.559a23.376 23.376 0 01-.029-1.159c0-1.411.123-2.79.344-4.129 1.972-11.856 12.266-20.888 24.679-20.894 12.411.006 22.705 9.038 24.675 20.894.222 1.339.345 2.718.345 4.129 0 .391-.009.775-.028 1.159h7.624c.877.002 1.643-.278 2.115-.642.483-.378.637-.735.637-1.047 0-.314-.154-.671-.637-1.048-.472-.365-1.238-.647-2.115-.645V367.59c1.547.001 2.978.465 4.094 1.305 1.108.829 1.936 2.134 1.933 3.661.003 1.527-.825 2.831-1.933 3.659-1.116.84-2.547 1.304-4.094 1.306h-9.407c-.468 0-.912-.2-1.224-.551a1.63 1.63 0 01-.402-1.281c.103-.86.159-1.728.16-2.603a21.825 21.825 0 00-.3-3.591c-1.709-10.295-10.659-18.157-21.443-18.154-10.785-.003-19.736 7.859-21.448 18.154a22.157 22.157 0 00-.299 3.591c0 .875.058 1.743.161 2.6a1.637 1.637 0 01-1.625 1.836h-7.278z" fill="#333"/><path d="M130.097 373.231c0 12.745-10.33 23.078-23.077 23.078-12.748 0-23.078-10.333-23.078-23.078 0-12.748 10.33-23.078 23.078-23.078 12.747 0 23.077 10.33 23.077 23.078z" fill="#fff"/><path d="M85.406 373.25c.022 11.842 9.596 21.418 21.44 21.437 11.841-.019 21.416-9.595 21.439-21.437h-.001c-.022-11.845-9.597-21.42-21.438-21.439-11.844.019-21.418 9.594-21.44 21.439zm-3.277 0c.003-13.652 11.063-24.717 24.717-24.717 13.652 0 24.714 11.065 24.715 24.717h-.001c0 13.651-11.062 24.714-24.714 24.716-13.654-.002-24.714-11.065-24.717-24.716z" fill="#333"/><path d="M93.44 373.206c.014 7.485 6.07 13.543 13.555 13.557 7.486-.014 13.544-6.072 13.557-13.557-.013-7.487-6.071-13.545-13.557-13.557-7.485.012-13.541 6.07-13.556 13.557zm-3.28 0c.003-9.297 7.538-16.833 16.835-16.836 9.297.003 16.831 7.539 16.831 16.836 0 9.297-7.534 16.831-16.831 16.834-9.297-.003-16.832-7.537-16.835-16.834z" fill="#F39313"/><path d="M105.187 388.401v-30.39a1.64 1.64 0 011.638-1.641 1.64 1.64 0 011.638 1.641v30.39a1.639 1.639 0 01-3.276 0z" fill="#F39313"/><path d="M119.374 382.274L93.051 367.07a1.637 1.637 0 011.638-2.836l26.323 15.202a1.643 1.643 0 01.6 2.241 1.64 1.64 0 01-2.238.597z" fill="#F39313"/><path d="M92.453 381.677a1.643 1.643 0 01.598-2.241l26.323-15.202a1.637 1.637 0 111.638 2.836L94.69 382.274c-.257.149-.539.22-.818.22a1.644 1.644 0 01-1.42-.817z" fill="#F39313"/><path d="M114.496 373.264a7.499 7.499 0 01-7.504 7.499 7.5 7.5 0 110-15.001 7.501 7.501 0 017.504 7.502z" fill="#fff"/><path d="M100.948 373.217a5.875 5.875 0 005.866 5.863 5.874 5.874 0 005.868-5.863 5.87 5.87 0 00-5.868-5.863 5.871 5.871 0 00-5.866 5.863zm-3.274 0a9.139 9.139 0 019.14-9.139c5.05 0 9.144 4.089 9.144 9.139 0 5.049-4.093 9.137-9.144 9.137-5.047 0-9.14-4.088-9.14-9.137z" fill="#F39313"/><path d="M316.891 373.231c0 12.745-10.328 23.078-23.076 23.078-12.747 0-23.075-10.333-23.075-23.078 0-12.748 10.328-23.078 23.075-23.078 12.748 0 23.076 10.33 23.076 23.078z" fill="#fff"/><path d="M272.46 373.25c.024 11.842 9.597 21.418 21.441 21.437 11.84-.019 21.417-9.595 21.439-21.437-.022-11.845-9.599-21.42-21.439-21.439-11.844.019-21.417 9.594-21.441 21.439zm-3.275 0c0-13.652 11.063-24.717 24.716-24.717s24.713 11.065 24.713 24.717c0 13.651-11.06 24.714-24.713 24.716-13.653-.002-24.716-11.065-24.716-24.716z" fill="#333"/><path d="M280.235 373.206c.013 7.485 6.072 13.543 13.557 13.557 7.485-.014 13.547-6.072 13.56-13.557-.013-7.484-6.075-13.545-13.56-13.557-7.485.012-13.544 6.07-13.557 13.557zm-3.277 0c.002-9.297 7.538-16.833 16.834-16.836 9.296.003 16.832 7.539 16.833 16.836-.001 9.297-7.537 16.831-16.833 16.834-9.296-.003-16.832-7.537-16.834-16.834z" fill="#F39313"/><path d="M292.243 388.401v-30.39a1.638 1.638 0 113.274 0v30.39a1.636 1.636 0 11-3.274 0z" fill="#F39313"/><path d="M306.171 382.274l-26.322-15.204a1.638 1.638 0 011.637-2.836l26.32 15.202a1.642 1.642 0 01.601 2.241 1.64 1.64 0 01-2.236.597z" fill="#F39313"/><path d="M279.249 381.677a1.644 1.644 0 01.6-2.241l26.322-15.202a1.637 1.637 0 111.639 2.836l-26.324 15.204a1.64 1.64 0 01-2.237-.597z" fill="#F39313"/><path d="M301.286 373.207c0 4.145-3.356 7.508-7.501 7.508-4.145 0-7.501-3.363-7.501-7.508s3.356-7.509 7.501-7.509c4.145 0 7.501 3.364 7.501 7.509z" fill="#fff"/><path d="M288.007 373.226a5.874 5.874 0 005.864 5.869 5.872 5.872 0 005.861-5.869 5.875 5.875 0 00-5.861-5.872 5.877 5.877 0 00-5.864 5.872zm-3.277 0c.001-5.048 4.087-9.146 9.141-9.148 5.052.002 9.138 4.1 9.138 9.148s-4.086 9.145-9.138 9.147c-5.054-.002-9.14-4.099-9.141-9.147z" fill="#F39313"/><path d="M26.279 398.501a2.184 2.184 0 01-2.184-2.184c0-1.208.975-2.186 2.184-2.186h356.228a2.185 2.185 0 010 4.37H26.279z" fill="#333"/><path d="M605.715 440.611H427.576c-13.881 0-20.534-2.076-20.534-19.508l.514-297.752c0-17.469 4.086-21.049 17.967-21.049l177.627-.513c13.906 0 15.396 6.145 15.396 23.615l.516 286.458c0 17.435.522 28.749-13.347 28.749zm1.371-372.533H418.849c-16.072 0-36.964 19.109-36.964 39.308v342.342c0 20.196 19.524 36.574 35.595 36.574h190.285c16.076 0 37.649-16.378 37.649-36.574V107.386c0-20.199-22.259-39.308-38.328-39.308z" fill="#fff"/><path d="M395.279 82.248c-6.86 6.863-11.094 16.323-11.094 26.792l-.002 337.286c.002 10.468 4.236 19.925 11.096 26.791 6.863 6.857 16.323 11.096 26.796 11.096l183.67.003c10.465-.003 19.925-4.242 26.788-11.099 6.862-6.866 11.096-16.323 11.101-26.791V109.04c-.005-10.469-4.239-19.929-11.101-26.792-6.863-6.86-16.323-11.098-26.788-11.098h-183.67c-10.473 0-19.931 4.238-26.796 11.098zm26.796 406.331c-23.343 0-42.26-18.915-42.263-42.253l.003-337.286c0-23.34 18.917-42.257 42.26-42.257h183.67c23.334 0 42.252 18.92 42.255 42.257v337.286c-.003 23.338-18.921 42.253-42.255 42.256l-183.67-.003z" fill="#333"/><path d="M410.864 113.913v316.69c.01 4.653 3.776 8.424 8.43 8.431h189.305a8.444 8.444 0 008.432-8.431v-316.69a8.444 8.444 0 00-8.432-8.433H419.294c-4.654.007-8.42 3.778-8.43 8.433zm8.43 329.488c-7.071-.001-12.796-5.731-12.796-12.798v-316.69c0-7.069 5.726-12.801 12.796-12.802h189.305c7.071.001 12.8 5.733 12.8 12.802v316.69c0 7.069-5.729 12.797-12.8 12.798H419.294zM476.154 463.175a6.263 6.263 0 006.25 6.249h62.644a6.26 6.26 0 006.247-6.249 6.26 6.26 0 00-6.247-6.252h-62.644a6.263 6.263 0 00-6.25 6.252zm6.25 10.616c-5.867-.001-10.618-4.755-10.618-10.616 0-5.864 4.751-10.616 10.618-10.621h62.644c5.864.005 10.615 4.755 10.615 10.621 0 5.861-4.751 10.615-10.615 10.616h-62.644zM462.572 87.668a2.184 2.184 0 110-4.369h73.487a2.185 2.185 0 010 4.37h-73.487zM552.99 87.667a2.183 2.183 0 110-4.368h12.045c1.207 0 2.188.978 2.188 2.185a2.186 2.186 0 01-2.188 2.183H552.99z" fill="#333"/><path d="M408.682 148.552a2.184 2.184 0 110-4.369h210.536c1.205 0 2.181.978 2.181 2.185a2.182 2.182 0 01-2.181 2.184H408.682zM419.452 135.525v-7.746a2.182 2.182 0 114.366 0v7.746a2.185 2.185 0 01-2.182 2.185 2.185 2.185 0 01-2.184-2.185zM428.52 135.507v-12.393a2.184 2.184 0 014.369 0v12.393a2.186 2.186 0 01-2.185 2.185 2.186 2.186 0 01-2.184-2.185zM437.847 135.492v-17.04a2.183 2.183 0 114.368 0v17.04a2.184 2.184 0 01-4.368 0zM446.915 135.538v-21.686a2.184 2.184 0 014.369 0v21.686a2.184 2.184 0 01-4.369 0zM572.276 134.245h31.32v-18.597h-31.32v18.597zm-2.183 4.37a2.2 2.2 0 01-1.547-.64 2.206 2.206 0 01-.641-1.546v-22.963c0-.577.236-1.139.641-1.546.409-.406.968-.64 1.547-.64h35.689v2.186-2.186c.574 0 1.137.234 1.544.64.406.408.639.969.639 1.546v22.963c0 .576-.233 1.139-.639 1.546a2.2 2.2 0 01-1.544.64h-35.689z" fill="#333"/><path d="M561.541 122.385v-2.184 2.184zm2.184 5.043h4.213v-5.043h-4.213v5.043zm-2.184 4.369a2.207 2.207 0 01-1.546-.639 2.201 2.201 0 01-.64-1.545v-9.412a2.19 2.19 0 012.186-2.185h8.584a2.19 2.19 0 012.183 2.185v9.412c0 .575-.233 1.137-.64 1.544-.407.407-.97.64-1.543.64h-8.584zM594.591 129.431v-9.035a2.184 2.184 0 114.366 0v9.035a2.181 2.181 0 01-2.183 2.182 2.181 2.181 0 01-2.183-2.182zM585.782 129.428v-9.034a2.184 2.184 0 114.369 0v9.034a2.184 2.184 0 11-4.369 0zM576.714 129.431v-9.036a2.184 2.184 0 114.369 0v9.036a2.186 2.186 0 01-4.369 0zM487.96 424.407a2.183 2.183 0 010-4.367h19.879a2.184 2.184 0 110 4.367H487.96zM518.274 424.407a2.183 2.183 0 110-4.367h5.42a2.183 2.183 0 110 4.367h-5.42zM534.337 424.407a2.183 2.183 0 110-4.367h5.421c1.205 0 2.185.977 2.185 2.184 0 1.206-.98 2.183-2.185 2.183h-5.421zM454.611 398.131h-9.32c-.18 0-.36-.006-.537-.017a1.636 1.636 0 01-.849-.1 8.226 8.226 0 01-6.836-8.104l.002-9.323a8.217 8.217 0 016.843-8.104 1.647 1.647 0 01.831-.097c.181-.011.363-.017.546-.017h9.32a8.9 8.9 0 01.543.017 1.643 1.643 0 01.833.098 8.22 8.22 0 016.844 8.103v9.323a8.226 8.226 0 01-6.837 8.104 1.637 1.637 0 01-.848.1 8.639 8.639 0 01-.535.017zm-3.023-22.488v19.212h2.161v-19.212h-2.161zm-5.439 0v19.21h2.161v-19.21h-2.161zm-3.271.631a4.953 4.953 0 00-2.53 4.313v9.323a4.95 4.95 0 002.53 4.312v-17.948zm14.147.001v17.947a4.953 4.953 0 002.53-4.312v-9.323a4.95 4.95 0 00-2.53-4.312zM572.471 372.386a8.89 8.89 0 01.545-.017h9.323c.183 0 .363.006.544.017a1.642 1.642 0 01.828.097 8.22 8.22 0 016.846 8.104v9.323a8.228 8.228 0 01-6.837 8.105 1.65 1.65 0 01-.846.099 8.59 8.59 0 01-.535.017l-4.591-.001-.068.001-.07-.001-4.594-.002c-.177 0-.352-.006-.525-.016a1.634 1.634 0 01-.872-.102 8.225 8.225 0 01-6.823-8.1v-9.323a8.219 8.219 0 016.84-8.103 1.648 1.648 0 01.835-.098zm1.405 3.257v19.21h2.164v-19.21h-2.164zm5.439 0v19.21h2.161v-19.21h-2.161zm5.439.632v17.945a4.949 4.949 0 002.527-4.31v-9.323a4.953 4.953 0 00-2.527-4.312zm-14.154.002a4.945 4.945 0 00-2.528 4.31v9.323a4.945 4.945 0 002.528 4.31v-17.943z" fill="#333"/><path d="M513.757 285.771c4.439 0 42.983-.058 48.052 7.372 16.27 23.86 31.239 30.368 31.239 43.977 0 0 2.366 41.718-2.072 43.787-4.439 2.072-31.952 4.44-77.219 4.44v-99.576z" fill="#fff"/><path d="M580.366 329.792v-.004l-.639-1.235.639 1.239zm-15.959 12.22c.866.298 2.395.484 4.206.478 3.265.002 7.489-.529 11.37-1.341 2.371-.493 3.796-1.265 4.568-2.011.765-.759.998-1.458 1.014-2.331.026-1.389-.879-3.237-2.127-4.621-1.109-1.336-2.664-2.141-3.019-2.149-9.644 4.976-14.625 8.586-16.169 10.597-.432.538-.552.895-.574 1.012.069.069.315.228.731.366zm-3.031 1.966c-.58-.544-.999-1.417-.983-2.29.135-2.281 1.73-3.893 4.6-6.194 2.931-2.252 7.414-4.993 13.979-8.395.458-.236.944-.33 1.394-.328 2.127.099 3.866 1.47 5.521 3.241 1.588 1.81 2.929 4.162 2.958 6.795a6.42 6.42 0 01-2.022 4.693c-1.394 1.329-3.409 2.276-6.169 2.855-4.069.845-8.438 1.409-12.041 1.413-3.03-.068-5.474-.224-7.237-1.79z" fill="#333"/><path d="M580.939 340.753a4.585 4.585 0 004.576-4.575 4.583 4.583 0 00-4.576-4.575 4.581 4.581 0 00-4.574 4.575 4.583 4.583 0 004.574 4.575zm-7.852-4.575a7.853 7.853 0 1115.707 0 7.853 7.853 0 01-15.707 0z" fill="#333"/><path d="M567.297 339.517a2.8 2.8 0 002.802 2.8 2.805 2.805 0 002.797-2.8 2.804 2.804 0 00-2.797-2.8 2.807 2.807 0 00-2.805 2.8h.003zm-3.278 0a6.076 6.076 0 0112.153 0 6.083 6.083 0 01-6.073 6.079 6.082 6.082 0 01-6.08-6.079zM589.485 369.273c-.968 3.844-3.72 7.662-8.739 9.334a15.81 15.81 0 01-4.953.821c-2.603-.006-4.991-.681-6.832-1.958-1.83-1.258-3.139-3.261-3.128-5.599.007-2.412 1.317-4.862 3.87-7.161 2.571-2.309 6.447-4.553 12.019-6.648v.002a5.973 5.973 0 012.087-.398c2.013-.014 3.674 1.194 4.625 2.738.979 1.563 1.453 3.505 1.456 5.578.005.63-.04 1.28-.136 1.935a1.639 1.639 0 01-.269 1.356zm-8.333 5.634h-10.133c1.165.747 2.852 1.246 4.774 1.243 1.237 0 2.574-.204 3.916-.649.513-.172.993-.372 1.443-.594zm4.664-4.962h-16.193c-.319.63-.47 1.197-.504 1.687h15.798c.36-.541.659-1.107.899-1.687zm.759-4.827h-11.982a21.784 21.784 0 00-2.146 1.551h14.138a9.026 9.026 0 00-.01-1.551zm-1.136-3.277c-.511-.646-1.014-.889-1.63-.899-.258 0-.561.049-.934.187l-.575-1.531.572 1.534c-.628.235-1.233.471-1.811.709h4.378zM582.282 319.425a1.637 1.637 0 11.224-3.267c.86.058 1.651.097 2.363.097 1.88.004 3.173-.266 4.036-.814.857-.545 1.551-1.42 2.114-3.292.079-.284.111-.506.111-.686-.019-.509-.168-.824-.661-1.289-.491-.444-1.349-.887-2.387-1.221-2.074-.678-4.826-.932-6.733-.926-1.691.014-1.996.357-2.087.49-.156.15-.331.937-.31 2.251 0 .478.012 1.016.012 1.608a1.639 1.639 0 01-3.276 0c0-.548-.01-1.085-.01-1.608.023-1.39-.006-2.79.918-4.157.992-1.382 2.703-1.881 4.753-1.862 3.275.064 8.26.424 11.293 2.977 1.01.867 1.777 2.205 1.761 3.737 0 .527-.084 1.06-.238 1.599-.675 2.338-1.833 4.111-3.522 5.157-1.683 1.043-3.63 1.309-5.774 1.312-.826 0-1.686-.044-2.587-.106z" fill="#333"/><path d="M585.087 313.208a1.638 1.638 0 01-1.637-1.64c0-.905.733-1.638 1.637-1.638h7.712a1.639 1.639 0 010 3.278h-7.712z" fill="#333"/><path d="M513.881 285.771c-4.437 0-42.982-.058-48.048 7.372-16.274 23.86-31.242 30.368-31.242 43.977 0 0-2.367 41.718 2.07 43.787 4.437 2.072 31.955 4.44 77.22 4.44v-99.576z" fill="#fff"/><path d="M513.921 284.155l.047-.002.224-.001c4.087.011 26.145.007 39.385 3.179 4.427 1.12 7.944 2.364 9.79 4.911 8.047 11.796 15.751 19.282 21.578 25.65 5.777 6.305 9.924 11.733 9.95 19.195.037.709.629 11.471.629 22.203-.015 7.837-.282 15.527-1.433 19.732-.453 1.392-.765 2.585-2.212 3.391-1.525.683-4.058 1.167-8.055 1.706-3.962.521-9.26 1.012-15.832 1.439-13.139.853-31.363 1.447-54.024 1.449l-.06-.002c-33.968-.003-57.933-1.331-69.803-2.884-3.994-.542-6.527-1.022-8.053-1.709-1.446-.802-1.758-1.998-2.213-3.39-.393-1.42-.67-3.188-.879-5.241-.417-4.089-.554-9.279-.554-14.484 0-10.574.574-21.175.63-22.174.012-7.476 4.161-12.915 9.949-19.233 5.831-6.367 13.529-13.85 21.576-25.648 1.85-2.544 5.364-3.792 9.793-4.911 4.429-1.066 9.806-1.761 15.186-2.231 10.746-.937 21.493-.947 24.199-.947l.182.002zm.271 3.271h-.132l-.01.002-.082.001h-.229c-3.984-.008-26.077.052-38.621 3.087-4.166.948-7.2 2.456-7.85 3.571-8.227 12.063-16.144 19.759-21.867 26.015-5.762 6.298-9.093 10.919-9.089 17.04l-.002.094c0 .019-.628 11.079-.628 22.061-.009 7.216.289 14.459 1.142 18.163.224 1.083.577 1.848.707 2.027.81.354 3.324.917 7.001 1.384 3.856.507 9.098.996 15.618 1.418 13.034.849 31.183 1.44 53.763 1.442l.055-.002c33.896.003 57.841-1.334 69.433-2.857 3.655-.464 6.165-1.023 6.987-1.379.022-.029.058-.082.099-.152.125-.227.293-.648.449-1.201.31-1.114.577-2.75.777-4.692.396-3.89.535-9.016.535-14.158 0-10.978-.624-22.034-.624-22.057l-.007-.091c.007-6.124-3.327-10.742-9.087-17.038-5.725-6.256-13.64-13.955-21.867-26.017-.647-1.116-3.687-2.623-7.852-3.57-4.165-1.004-9.423-1.695-14.705-2.152-10.568-.921-21.238-.939-23.914-.939z" fill="#333"/><path fill-rule="evenodd" clip-rule="evenodd" d="M475.574 350.748c-.36-.429-.712-.87-1.055-1.319-2.233-2.981-4.125-6.206-5.024-9.129a1.634 1.634 0 01-.293-1.097 10.466 10.466 0 01-.265-2.067c0-1.038.232-2.13 1.001-3.007.771-.885 1.964-1.284 3.144-1.27h81.592c1.183-.013 2.372.385 3.142 1.271.767.876 1.003 1.968 1.003 3.006-.039 2.735-1.453 5.92-3.424 9.153-1.985 3.202-4.558 6.327-7.224 8.427-1.786 1.382-3.612 2.399-5.627 2.426H525.37c-6.219 0-11.515 0-11.526.002-.033 0-.065-.001-.097-.003-2.016 0-21.796 0-28.531.003-2.021-.029-3.847-1.045-5.633-2.428-1.185-.934-2.349-2.068-3.453-3.321a1.643 1.643 0 01-.556-.647zm38.27 3.118a1.39 1.39 0 00-.092.003c-1.986-.003-21.765-.003-28.521-.003h-.015c-.745.028-2.134-.543-3.612-1.726a15.799 15.799 0 01-.561-.46h65.666c-.188.161-.375.315-.561.46-1.474 1.18-2.861 1.754-3.604 1.728-7.102-.002-28.673-.002-28.7-.002zm-.005-5.462h36.029c.259-.315.514-.637.764-.964.288-.37.569-.749.841-1.135h-75.182a35.407 35.407 0 001.596 2.099h35.952zm-40.585-7.41c.281.654.614 1.339.99 2.034h79.258c.376-.698.709-1.383.992-2.034H473.254zm40.578-3.277h41.68c.026-.212.036-.406.029-.581 0-.568-.136-.797-.179-.837l-.007-.007-.007-.006c-.046-.042-.148-.138-.674-.151H513.844v.005c-.04 0-.08-.002-.119-.005h-40.643c-.529.013-.631.11-.677.153l-.013.012c-.045.039-.181.266-.181.836-.005.174.007.368.033.581h41.588z" fill="#F39313"/><path d="M444.029 332.188c-1.247 1.385-2.155 3.23-2.13 4.619.017.872.253 1.572 1.019 2.329.769.748 2.195 1.52 4.57 2.013 3.881.812 8.107 1.343 11.364 1.341 2.682.071 4.744-.548 4.94-.834-.017-.098-.125-.464-.574-1.022-.514-.651-1.415-1.522-2.745-2.545-2.653-2.045-6.992-4.72-13.417-8.05-.348 0-1.91.807-3.027 2.149zm2.793 12.167c-2.762-.579-4.786-1.526-6.176-2.855a6.381 6.381 0 01-2.022-4.693c.025-2.633 1.371-4.985 2.955-6.795 1.659-1.771 3.398-3.142 5.523-3.241.451-.002.943.089 1.4.328l-.756 1.454-.644 1.239.644-1.239.756-1.454c6.558 3.402 11.044 6.143 13.97 8.395 2.869 2.301 4.463 3.913 4.599 6.19.016.877-.4 1.748-.978 2.294-.58.558-1.26.892-1.991 1.141-1.465.483-3.23.642-5.25.649-3.6-.004-7.968-.568-12.03-1.413z" fill="#333"/><path d="M442.159 336.178a4.583 4.583 0 004.575 4.575 4.583 4.583 0 004.574-4.575 4.581 4.581 0 00-4.574-4.575 4.582 4.582 0 00-4.575 4.575zm-3.276 0a7.854 7.854 0 017.851-7.853 7.855 7.855 0 017.852 7.853 7.855 7.855 0 01-7.852 7.852 7.852 7.852 0 01-7.851-7.852z" fill="#333"/><path d="M454.854 339.517a2.801 2.801 0 002.801 2.8 2.803 2.803 0 002.799-2.8 2.805 2.805 0 00-2.799-2.8 2.803 2.803 0 00-2.801 2.8zm-3.276 0a6.074 6.074 0 016.077-6.075 6.073 6.073 0 016.073 6.075h.005a6.087 6.087 0 01-6.078 6.079 6.08 6.08 0 01-6.077-6.079zM437.983 367.919a12.928 12.928 0 01-.136-1.935c.007-2.074.476-4.017 1.458-5.58.949-1.544 2.611-2.752 4.623-2.738.688 0 1.394.139 2.086.396h.002c5.576 2.095 9.446 4.339 12.016 6.648 2.554 2.299 3.863 4.749 3.868 7.161.006 2.338-1.292 4.341-3.125 5.596-1.838 1.28-4.229 1.955-6.829 1.961a15.79 15.79 0 01-4.951-.821c-5.024-1.67-7.779-5.493-8.746-9.339a1.627 1.627 0 01-.266-1.349zm18.73 6.988h-10.125c.449.222.929.421 1.442.593 1.346.446 2.676.65 3.916.65 1.919.003 3.61-.496 4.767-1.243zm1.398-4.962h-16.192c.24.58.537 1.146.899 1.687h15.798c-.035-.49-.185-1.057-.505-1.687zm-4.969-4.827h-11.981c-.026.28-.041.571-.039.866.001.227.011.455.027.685h14.137a21.982 21.982 0 00-2.144-1.551zm-6.465-3.277a61.105 61.105 0 00-1.812-.709l.577-1.534-.578 1.531a2.677 2.677 0 00-.936-.187c-.616.01-1.12.253-1.629.899h4.378zM514.451 289.076c6.846.016 15.792.303 23.876 1.164 8.387.942 15.682 2.246 19.392 5.112 2.474 1.996 5.748 5.632 8.518 9.465 2.737 3.888 5.019 7.658 5.11 10.881.01.963-.278 2.049-1.103 2.829-.819.772-1.912 1.054-3.039 1.054h-.029c-.171 0-.337-.004-.532-.014-15.499-1.053-47.9-1.767-52.785-1.771l-.064.001c-4.661-.001-37.284.712-52.876 1.771a10.25 10.25 0 01-.511.016h-.013c-1.134 0-2.233-.279-3.054-1.055-.824-.781-1.111-1.87-1.099-2.831.088-3.221 2.371-6.995 5.106-10.884 2.773-3.83 6.046-7.466 8.522-9.462 3.711-2.864 11.006-4.168 19.389-5.111 8.348-.886 17.614-1.165 24.536-1.167l.656.002zm-.72 3.276c-6.827.001-15.983.28-24.124 1.145-8.128.814-15.407 2.471-17.687 4.411-2.079 1.66-5.315 5.209-7.912 8.823-2.635 3.56-4.583 7.492-4.492 8.967.008.425.086.454.083.457.003 0 .155.15.809.152.094 0 .212-.005.317-.007 15.746-1.067 48.264-1.779 53.07-1.78h.246c5.573.021 37.321.727 52.795 1.78.126.002.243.005.34.005.655-.001.809-.149.812-.152-.006-.004.072-.031.085-.455.089-1.475-1.859-5.409-4.493-8.968-2.599-3.613-5.832-7.165-7.911-8.822-2.282-1.942-9.557-3.597-17.686-4.411-8.166-.871-17.355-1.147-24.188-1.144l-.064-.001zM436.95 318.221c-1.689-1.047-2.851-2.818-3.524-5.153a5.678 5.678 0 01-.243-1.603c-.016-1.533.754-2.87 1.763-3.739 1.01-.891 2.245-1.462 3.551-1.887 2.611-.84 5.566-1.086 7.743-1.09 2.05-.016 3.759.484 4.751 1.865.925 1.362.896 2.764.919 4.152 0 .524-.01 1.059-.01 1.611a1.638 1.638 0 01-3.274 0c0-.589.01-1.131.01-1.611.024-1.311-.152-2.095-.31-2.248-.091-.133-.4-.474-2.086-.491-2.851-.064-7.648.698-9.121 2.149-.496.463-.645.78-.66 1.289.002.185.029.4.11.672.566 1.884 1.258 2.76 2.113 3.305.864.548 2.157.818 4.035.814.711 0 1.5-.039 2.369-.097a1.637 1.637 0 11.222 3.267c-.905.063-1.766.106-2.591.107-2.141-.004-4.089-.268-5.767-1.312z" fill="#333"/><path d="M434.821 313.208a1.639 1.639 0 010-3.278h7.712a1.638 1.638 0 110 3.278h-7.712zM547.558 380.314h-67.305c-5.838-.009-10.979-3.75-11.057-9.089.078-5.338 5.219-9.08 11.057-9.09h67.305c5.841.01 10.978 3.752 11.057 9.09-.079 5.339-5.216 9.08-11.057 9.089zm-64.936-4.894v1.618h4.957v-1.618h-4.957zm8.233 0v1.618h4.954v-1.618h-4.954zm8.229 0v1.618h4.955v-1.618h-4.955zm8.232 0v1.618h4.951v-1.618h-4.951zm8.228 0v1.618h4.955v-1.618h-4.955zm8.231 0v1.618h4.953v-1.618h-4.953zm8.229 0v1.618h4.955v-1.618h-4.955zm8.23 0v1.618h4.956v-1.618h-4.956zm-60.885 1.579v-1.579h-4.461c1.171.839 2.722 1.427 4.461 1.579zm73.573-1.579h-4.459v1.579c1.739-.152 3.289-.74 4.459-1.579zm-80.353-3.277h6.78v-1.834h-6.78a4.262 4.262 0 000 1.834zm10.053-1.834v1.834h4.957v-1.834h-4.957zm8.233 0v1.834h4.954v-1.834h-4.954zm8.229 0v1.834h4.955v-1.834h-4.955zm8.232 0v1.834h4.951v-1.834h-4.951zm8.228 0v1.834h4.955v-1.834h-4.955zm8.231 0v1.834h4.953v-1.834h-4.953zm8.229 0v1.834h4.955v-1.834h-4.955zm8.23 0v1.834h4.956v-1.834h-4.956zm15.007 0h-6.778v1.834h6.779a4.48 4.48 0 00.1-.918h-.005c0-.31-.031-.615-.096-.916zm-75.892-4.857c-1.74.151-3.292.741-4.463 1.578h4.463v-1.578zm3.273-.039v1.617h4.957v-1.617h-4.957zm8.233 0v1.617h4.954v-1.617h-4.954zm8.229 0v1.617h4.955v-1.617h-4.955zm8.232 0v1.617h4.951v-1.617h-4.951zm8.228 0v1.617h4.955v-1.617h-4.955zm8.231 0v1.617h4.953v-1.617h-4.953zm8.229 0v1.617h4.955v-1.617h-4.955zm8.23 0v1.617h4.956v-1.617h-4.956zm8.229.039v1.578h4.461c-1.171-.838-2.722-1.425-4.461-1.578zM408.684 398.627a2.183 2.183 0 110-4.366h210.562a2.183 2.183 0 110 4.366H408.684zM37.652 216.956c-.905 0-1.64-.733-1.64-1.636 0-.905.735-1.638 1.64-1.638h72.473a1.638 1.638 0 110 3.274H37.652zM127.294 133.793a1.638 1.638 0 110-3.276h18.832a1.638 1.638 0 010 3.276h-18.832zM153.717 133.793a1.637 1.637 0 010-3.276h4.914a1.639 1.639 0 110 3.276h-4.914zM343.11 50.887a1.64 1.64 0 01-1.641-1.638 1.64 1.64 0 011.641-1.638h18.831a1.638 1.638 0 110 3.276H343.11zM369.791 50.886a1.636 1.636 0 110-3.275h4.914a1.638 1.638 0 010 3.275h-4.914zM278.853 164.431a1.638 1.638 0 010-3.278h15.561a1.639 1.639 0 010 3.278h-15.561zM287.924 169.742a1.64 1.64 0 110-3.278h15.558a1.639 1.639 0 010 3.278h-15.558zM490.785 535.757a1.637 1.637 0 110-3.276h15.557a1.637 1.637 0 110 3.276h-15.557zM499.591 541.068a1.638 1.638 0 010-3.276h15.561a1.639 1.639 0 110 3.276h-15.561zM110.97 493.981a1.638 1.638 0 010-3.277h15.558a1.639 1.639 0 010 3.277H110.97zM119.782 499.291a1.638 1.638 0 110-3.276h15.558c.906 0 1.636.732 1.636 1.64 0 .903-.73 1.636-1.636 1.636h-15.558zM208.126 437.436a1.64 1.64 0 010-3.277h22.927a1.639 1.639 0 010 3.277h-22.927zM323.416 490.159a1.637 1.637 0 110-3.276h22.933a1.64 1.64 0 011.638 1.639 1.64 1.64 0 01-1.638 1.637h-22.933zM24.696 103.286a1.638 1.638 0 110-3.276h22.93a1.638 1.638 0 010 3.276h-22.93z" fill="#333"/><path d="M589.878 30.691a1.637 1.637 0 01-1.636-1.64c0-.904.731-1.637 1.636-1.637h22.928a1.638 1.638 0 110 3.278h-22.928z" fill="#F39313"/><path d="M285.851 265.796a1.64 1.64 0 010-3.278h37.463a1.638 1.638 0 110 3.278h-37.463zM331.968 265.796a1.638 1.638 0 110-3.278h6.549a1.638 1.638 0 110 3.278h-6.549zM1.637 295.136a1.639 1.639 0 010-3.277h37.468a1.639 1.639 0 010 3.277H1.637zM48.014 295.136a1.639 1.639 0 010-3.277h6.55a1.639 1.639 0 010 3.277h-6.55z" fill="#333"/><path d="M175.955 249.579v3.84h-3.84a1.639 1.639 0 100 3.275h3.84v3.841a1.637 1.637 0 003.274 0v-3.841h3.839a1.639 1.639 0 100-3.275h-3.839v-3.84a1.637 1.637 0 10-3.274 0z" fill="#F39313"/><path d="M435.515 470.199v-10.955a1.64 1.64 0 013.278 0v10.955a1.64 1.64 0 01-3.278 0z" fill="#333"/><path d="M431.714 466.388a1.637 1.637 0 110-3.276h10.955c.906 0 1.638.731 1.638 1.638 0 .906-.732 1.638-1.638 1.638h-10.955z" fill="#333"/><path d="M256.749 534.202v3.813c0 .905.735 1.635 1.638 1.635.905 0 1.638-.73 1.638-1.635v-3.813h3.875a1.64 1.64 0 000-3.276h-3.875v-3.867a1.638 1.638 0 10-3.276 0v3.867h-3.804a1.638 1.638 0 000 3.276h3.804z" fill="#F39313"/><path d="M30.48 443.108a3.276 3.276 0 003.273 3.276 3.28 3.28 0 003.277-3.276 3.283 3.283 0 00-3.277-3.274 3.278 3.278 0 00-3.272 3.274zm-3.277 0a6.551 6.551 0 1113.102 0h.003a6.551 6.551 0 11-13.104 0z" fill="#333"/><path d="M248.107 74.888a3.283 3.283 0 003.278 3.276 3.284 3.284 0 003.276-3.276h-.001a3.278 3.278 0 00-3.275-3.275 3.278 3.278 0 00-3.278 3.275zm-3.276 0a6.552 6.552 0 0113.105 0 6.552 6.552 0 01-6.551 6.55 6.55 6.55 0 01-6.554-6.55z" fill="#F39313"/><path d="M618.667 522.658a3.28 3.28 0 003.276 3.275 3.28 3.28 0 003.273-3.275 3.282 3.282 0 00-3.273-3.277 3.283 3.283 0 00-3.276 3.277zm-3.275 0a6.55 6.55 0 1113.099 0h.002a6.557 6.557 0 01-6.55 6.554 6.554 6.554 0 01-6.551-6.554zM509.778 6.819a3.282 3.282 0 003.275 3.275 3.282 3.282 0 003.276-3.275 3.28 3.28 0 00-3.276-3.278 3.28 3.28 0 00-3.275 3.278zm-3.275 0a6.553 6.553 0 016.55-6.555 6.556 6.556 0 016.552 6.555h-.002a6.55 6.55 0 01-13.1 0z" fill="#333"/></svg>