<svg width="14" height="14" fill="none" xmlns="http://www.w3.org/2000/svg"><path d="M13.956 6.223c-.022-.197-.252-.345-.45-.345-.642 0-1.21-.376-1.45-.96a1.56 1.56 0 01.392-1.73.389.389 0 00.043-.528 6.932 6.932 0 00-1.11-1.12.39.39 0 00-.531.043c-.418.462-1.167.634-1.746.392a1.555 1.555 0 01-.946-1.52.388.388 0 00-.343-.408A6.986 6.986 0 006.24.042a.39.39 0 00-.347.401 1.558 1.558 0 01-.958 1.494c-.573.233-1.317.063-1.733-.395a.39.39 0 00-.528-.044c-.42.329-.801.706-1.133 1.12a.39.39 0 00.042.531c.487.441.644 1.143.391 1.747-.241.575-.839.946-1.523.946a.38.38 0 00-.404.344 7.017 7.017 0 00-.003 1.591c.022.198.258.345.459.345a1.535 1.535 0 011.44.959 1.557 1.557 0 01-.391 1.731.389.389 0 00-.043.527c.325.415.699.791 1.108 1.12a.39.39 0 00.532-.041c.42-.464 1.169-.635 1.745-.393.605.253.985.864.948 1.52a.389.389 0 00.343.408 6.938 6.938 0 001.575.005.39.39 0 00.346-.401 1.556 1.556 0 01.958-1.493c.576-.235 1.317-.063 1.734.394.138.15.367.169.528.044a6.97 6.97 0 001.133-1.12.389.389 0 00-.042-.531 1.55 1.55 0 01-.392-1.746 1.567 1.567 0 011.432-.95l.086.003a.39.39 0 00.41-.343 6.985 6.985 0 00.003-1.592zM7 11.036a4.036 4.036 0 113.465-1.967L8.698 7.302c.128-.301.195-.628.195-.966 0-.66-.257-1.282-.725-1.75a2.458 2.458 0 00-1.749-.724c-.22 0-.44.03-.652.087a.28.28 0 00-.194.195.273.273 0 00.078.268s.872.88 1.164 1.17c.03.031.03.104.026.13l-.003.02c-.029.32-.086.706-.132.854l-.02.018-.018.02c-.15.048-.542.105-.868.135v-.002l-.014.003-.014.001a.186.186 0 01-.134-.057 737.057 737.057 0 00-1.142-1.136.285.285 0 00-.204-.09.277.277 0 00-.26.21c-.232.854.013 1.773.638 2.397a2.458 2.458 0 001.75.725c.337 0 .664-.068.965-.196l1.787 1.787A4.015 4.015 0 017 11.036z" fill="#0872EE"/></svg>