<svg width="16" height="16" viewBox="0 0 16 16" fill="none" xmlns="http://www.w3.org/2000/svg">
<path d="M2.66649 14.2222C2.66649 15.2041 3.4624 16 4.44444 16C5.42649 16 6.22204 15.2041 6.22204 14.2222C6.22204 13.2404 5.42649 12.4444 4.44444 12.4444C3.4624 12.4444 2.66649 13.2404 2.66649 14.2222ZM11.5554 14.2222C11.5554 15.2041 12.3513 16 13.3333 16C14.3154 16 15.1109 15.2041 15.1109 14.2222C15.1109 13.2404 14.3154 12.4444 13.3333 12.4444C12.3513 12.4444 11.5554 13.2404 11.5554 14.2222ZM5.81956 10.0199L15.6581 7.20889C15.8462 7.15502 16 6.95111 16 6.75556V1.86667H3.46667V0.355556C3.46667 0.16 3.30684 0 3.11111 0H0.355556C0.159822 0 0 0.16 0 0.355556V1.77778H1.72764L3.4768 9.82827L3.64444 10.6667V12C3.64444 12.1956 3.80427 12.3556 4 12.3556H4.44444H13.3333H15.6444C15.8402 12.3556 16 12.1956 16 12V10.6667H6.00196C4.98009 10.6667 4.95929 10.2661 5.81956 10.0199Z" fill="#131820"/>
</svg>
