<svg width="16" height="16" viewBox="0 0 16 16" fill="none" xmlns="http://www.w3.org/2000/svg">
<g clip-path="url(#clip0)">
<path d="M8 3.23126C4.94303 3.23126 2.17081 4.90376 0.125192 7.62034C-0.0417306 7.8429 -0.0417306 8.15384 0.125192 8.3764C2.17081 11.0963 4.94303 12.7687 8 12.7687C11.057 12.7687 13.8292 11.0963 15.8748 8.37967C16.0417 8.15711 16.0417 7.84618 15.8748 7.62361C13.8292 4.90376 11.057 3.23126 8 3.23126ZM8.21929 11.3581C6.19004 11.4857 4.51427 9.81324 4.64191 7.78071C4.74665 6.10495 6.10494 4.74666 7.78071 4.64192C9.80996 4.51427 11.4857 6.18677 11.3581 8.2193C11.2501 9.89179 9.89179 11.2501 8.21929 11.3581ZM8.11783 9.80669C7.02465 9.87543 6.1213 8.97536 6.19331 7.88218C6.24895 6.97883 6.9821 6.24896 7.88545 6.19004C8.97862 6.12131 9.88197 7.02138 9.80996 8.11456C9.75105 9.02118 9.0179 9.75105 8.11783 9.80669Z" fill="#97A9B6"/>
</g>
<defs>
<clipPath id="clip0">
<rect width="16" height="16" fill="white"/>
</clipPath>
</defs>
</svg>
