<svg width="648" height="542" viewBox="0 0 648 542" fill="none" xmlns="http://www.w3.org/2000/svg">
<path d="M68.0917 369.225C64.259 365.39 59.5226 354.45 66.6228 347.349C66.6228 347.349 65.4387 341.138 69.8758 336.696C74.3143 332.261 100.646 323.089 121.357 320.723C121.357 320.723 169.878 289.065 193.252 289.065C193.252 289.065 269.038 284.044 312.233 291.734C312.233 291.734 319.29 292.318 319.29 300.01C319.29 300.01 335.263 320.128 333.787 340.841C333.787 340.841 340.699 360.549 327.182 369.336L68.0917 369.225Z" fill="white"/>
<path d="M325.891 370.25C325.4 369.488 325.612 368.472 326.373 367.98C332.425 364.042 333.976 357.738 333.998 352.016C334.002 347.664 333.045 343.81 332.572 342.199C332.416 341.666 332.324 341.402 332.324 341.402C332.25 341.197 332.218 340.96 332.234 340.745C332.296 339.864 332.326 338.989 332.326 338.115C332.354 323.942 324.328 310.083 320.293 304.125C318.953 302.137 318.093 301.052 318.089 301.051C317.859 300.759 317.733 300.403 317.733 300.03C317.705 297.111 316.66 295.713 315.492 294.759C314.314 293.825 312.876 293.488 312.359 293.412C312.213 293.391 312.181 293.387 312.181 293.387L312.028 293.368C293.477 290.06 268.662 289.109 246.559 289.112C232.13 289.112 218.841 289.512 209.17 289.916C199.496 290.319 193.46 290.718 193.444 290.721L193.334 290.724C185.095 290.695 172.852 295.05 161.006 300.587C149.137 306.111 137.571 312.763 130.234 317.197C125.341 320.151 122.343 322.109 122.336 322.113C122.119 322.255 121.883 322.34 121.627 322.37C106.328 324.11 87.6747 329.697 77.631 334.179C74.2999 335.641 71.8753 337.084 71.1192 337.875C68.6585 340.32 68.2017 343.487 68.2017 345.451C68.2017 345.967 68.2335 346.389 68.2624 346.672C68.2927 346.956 68.313 347.063 68.313 347.063C68.4156 347.595 68.245 348.144 67.8633 348.527C65.5313 350.871 64.6884 353.582 64.6783 356.421C64.6378 361.111 67.2706 366.067 69.3351 368.084C69.9742 368.726 69.9742 369.763 69.3351 370.4C68.6947 371.041 67.658 371.041 67.019 370.4C64.2981 367.632 61.4412 362.271 61.4022 356.421C61.3906 353.146 62.394 349.684 64.9819 346.804C64.9516 346.444 64.9226 345.987 64.9226 345.451C64.9255 343.035 65.4691 338.903 68.8016 335.56C70.2633 334.132 72.7949 332.764 76.2965 331.187C79.788 329.631 84.1861 327.98 89.0945 326.395C98.7927 323.264 110.456 320.388 120.871 319.158C122.894 317.857 134.162 310.667 147.862 303.463C163.011 295.532 180.94 287.516 193.29 287.446C194.669 287.357 218.419 285.836 246.559 285.836C268.757 285.839 293.665 286.773 312.586 290.137C313.085 290.198 314.844 290.456 316.715 291.619C318.765 292.859 320.863 295.431 321.003 299.478C323.248 302.465 335.545 319.447 335.603 338.115C335.603 338.956 335.577 339.802 335.523 340.652C335.922 341.9 337.268 346.492 337.274 352.016C337.294 358.259 335.467 365.978 328.161 370.728C327.882 370.908 327.574 370.992 327.266 370.992C326.731 370.992 326.206 370.731 325.891 370.25Z" fill="#333333"/>
<path d="M126.712 326.449V326.45V326.449ZM126.712 328.087V326.45C126.728 326.449 126.744 326.449 126.763 326.449C129.12 326.449 215.458 326.418 269.588 322.315C287.59 320.965 302.145 319.092 308.391 316.788C310.043 316.208 311.052 315.521 311.22 315.25C311.476 314.946 311.746 314.128 311.736 312.936C311.752 310.406 310.635 306.546 309.015 303.357C307.463 300.133 305.161 297.616 304.064 297.41C303.235 297.149 300.161 296.783 295.908 296.499C291.624 296.206 286.01 295.941 279.598 295.717C266.774 295.276 250.738 295.009 235.603 295.009C214.281 294.994 194.528 295.568 188.591 296.849C173.464 300.001 137.316 319.376 132.886 322.091C131.188 323.093 128.037 325.094 126.556 326.449C126.608 326.45 126.66 326.45 126.712 326.449V328.087ZM124.136 329.331C123.391 329.1 122.498 328.139 122.547 327.111C122.627 325.802 123.27 325.192 123.884 324.492C124.536 323.82 125.339 323.171 126.208 322.532C127.941 321.263 129.935 320.05 131.188 319.291C136.033 316.385 171.679 297.133 187.912 293.645C194.639 292.242 214.128 291.741 235.603 291.73C258.37 291.73 283.11 292.336 296.135 293.232C300.514 293.544 303.449 293.833 304.986 294.267C307.961 295.259 310.084 298.336 311.94 301.885C313.727 305.466 314.996 309.561 315.014 312.936C315.002 314.521 314.748 316.022 313.805 317.261C312.828 318.461 311.41 319.15 309.516 319.866C307.617 320.558 305.222 321.174 302.359 321.747C296.641 322.895 289.074 323.865 280.249 324.699C262.608 326.366 239.973 327.479 217.52 328.223C172.637 329.709 128.501 329.725 126.766 329.725L126.712 329.728C125.686 329.717 124.895 329.642 124.136 329.331Z" fill="#333333"/>
<path d="M279.405 323.283L273.878 294.256C273.709 293.369 274.291 292.511 275.179 292.342C276.07 292.173 276.926 292.756 277.096 293.643L282.622 322.671C282.792 323.562 282.208 324.419 281.319 324.584C281.214 324.604 281.11 324.614 281.007 324.614C280.238 324.614 279.552 324.068 279.405 323.283Z" fill="#333333"/>
<path d="M135.783 369.01C134.845 361.846 134.463 355.364 134.463 349.552C134.465 331.241 138.254 319.647 140.446 314.667H140.449C140.812 313.838 141.776 313.461 142.606 313.827C143.433 314.188 143.81 315.154 143.444 315.982C141.439 320.539 137.738 331.701 137.739 349.552C137.739 355.218 138.111 361.56 139.03 368.587C139.147 369.484 138.516 370.306 137.619 370.424C137.547 370.433 137.476 370.437 137.404 370.437C136.593 370.437 135.887 369.836 135.783 369.01Z" fill="#333333"/>
<path d="M207.605 368.938C207.366 366.14 207.265 362.811 207.265 359.112C207.269 334.52 211.744 293.482 211.747 293.451C211.845 292.549 212.652 291.903 213.553 291.998C214.45 292.098 215.101 292.905 215.004 293.804C215.003 293.829 213.888 304.049 212.772 317.35C211.656 330.641 210.541 346.992 210.542 359.112C210.541 362.75 210.639 366.004 210.869 368.657C210.943 369.561 210.276 370.353 209.373 370.428C209.327 370.434 209.28 370.436 209.234 370.436C208.393 370.436 207.675 369.789 207.605 368.938Z" fill="#333333"/>
<path d="M275.624 348.658C274.984 348.017 274.984 346.98 275.624 346.341C279.354 342.656 280.401 336.649 280.385 331.628C280.385 329.313 280.177 327.236 279.966 325.751C279.759 324.26 279.558 323.4 279.557 323.398L279.558 323.4C279.357 322.518 279.905 321.64 280.786 321.437C281.669 321.234 282.546 321.782 282.749 322.664C282.766 322.739 283.658 326.608 283.663 331.628C283.645 337.025 282.662 343.886 277.942 348.658C277.621 348.978 277.201 349.137 276.782 349.137C276.364 349.137 275.944 348.978 275.624 348.658Z" fill="#333333"/>
<path d="M66.6702 349.017C65.7652 349.017 65.0293 348.284 65.0293 347.379C65.0293 346.475 65.7652 345.741 66.6702 345.741C74.8273 345.667 77.7506 343.063 82.3713 338.531C82.7024 338.204 82.8947 337.935 82.9901 337.772C82.9323 337.739 82.8571 337.697 82.766 337.656C82.2484 337.415 81.2638 337.173 80.0957 337.027C77.7434 336.725 74.6552 336.718 72.1916 336.718V336.721C71.2866 336.721 70.5521 335.985 70.5521 335.081C70.5521 334.175 71.2866 333.442 72.1916 333.442C74.048 333.443 76.302 333.443 78.4316 333.584C80.5771 333.74 82.5506 333.975 84.1279 334.677C85.124 335.097 86.3327 336.064 86.3443 337.643C86.311 338.934 85.6301 339.878 84.6932 340.844C80.1896 345.432 75.7612 349.019 66.9348 349.019C66.8481 349.019 66.7584 349.017 66.6702 349.017Z" fill="#333333"/>
<path d="M328.787 341.224C327.426 339.891 326.977 337.931 326.96 334.947C326.969 332.538 327.113 330.845 327.589 329.459C328.021 328.078 329.139 326.956 330.388 326.612C331.203 326.362 331.998 326.324 332.825 326.317C333.729 326.317 334.465 327.052 334.465 327.958C334.465 328.86 333.729 329.596 332.825 329.596C332.134 329.59 331.638 329.648 331.374 329.738C331.108 329.835 331.062 329.871 330.916 330.057C330.611 330.41 330.21 331.935 330.236 334.947C330.222 337.633 330.761 338.634 331.036 338.84C331.248 339.086 331.868 339.242 333.168 339.228C333.411 339.228 333.661 339.225 333.924 339.228C334.829 339.228 335.562 339.961 335.562 340.866C335.562 341.767 334.829 342.503 333.924 342.503C333.671 342.503 333.42 342.503 333.168 342.503C331.873 342.488 330.21 342.52 328.787 341.224Z" fill="#333333"/>
<path d="M312.36 335.807C312.364 337.842 314.014 339.491 316.048 339.493C318.083 339.491 319.732 337.842 319.737 335.807C319.732 333.77 318.083 332.121 316.048 332.119C314.014 332.121 312.364 333.77 312.36 335.807ZM309.083 335.807C309.085 331.96 312.202 328.845 316.048 328.843C319.895 328.845 323.011 331.96 323.012 335.807C323.011 339.652 319.895 342.77 316.048 342.77C312.202 342.77 309.085 339.652 309.083 335.807Z" fill="#333333"/>
<path d="M310.722 337.431C309.815 337.431 309.083 336.697 309.083 335.792C309.083 334.884 309.815 334.154 310.722 334.154H316.046C316.953 334.154 317.684 334.884 317.684 335.792C317.684 336.697 316.953 337.431 316.046 337.431H310.722Z" fill="#333333"/>
<path d="M190.848 338.752C190.852 340.051 191.907 341.104 193.204 341.106C194.507 341.104 195.558 340.051 195.561 338.752C195.558 337.451 194.507 336.397 193.204 336.394C191.907 336.397 190.852 337.451 190.848 338.752ZM187.574 338.752C187.576 335.639 190.096 333.121 193.204 333.118C196.317 333.121 198.836 335.642 198.836 338.752C198.836 341.861 196.317 344.383 193.204 344.383C190.096 344.382 187.576 341.861 187.574 338.752Z" fill="#333333"/>
<path d="M187.66 340.411C186.753 340.411 186.02 339.675 186.02 338.773C186.02 337.865 186.753 337.134 187.66 337.134H202.454C203.358 337.134 204.089 337.865 204.089 338.773C204.089 339.675 203.358 340.411 202.454 340.411H187.66Z" fill="#333333"/>
<path d="M263.651 335.19C263.654 336.488 264.708 337.544 266.007 337.545C267.309 337.544 268.36 336.488 268.363 335.19C268.36 333.887 267.309 332.838 266.007 332.833C264.708 332.838 263.654 333.887 263.651 335.19ZM260.376 335.19C260.379 332.079 262.898 329.559 266.007 329.556C269.117 329.559 271.639 332.079 271.64 335.19H271.639C271.639 338.298 269.119 340.823 266.007 340.823C262.898 340.818 260.379 338.298 260.376 335.19Z" fill="#333333"/>
<path d="M260.462 336.847C259.556 336.847 258.822 336.114 258.822 335.211C258.822 334.304 259.556 333.571 260.462 333.571H275.255C276.158 333.571 276.894 334.304 276.894 335.211C276.894 336.114 276.158 336.847 275.255 336.847H260.462Z" fill="#333333"/>
<path d="M147.158 327.979C147.162 322.024 148.59 310.883 148.593 310.843V310.845C148.705 309.946 149.526 309.312 150.425 309.425C151.322 309.539 151.955 310.358 151.842 311.256C151.845 311.274 150.427 322.449 150.434 327.979C150.434 328.881 149.699 329.615 148.794 329.615C147.889 329.615 147.158 328.881 147.158 327.979Z" fill="#333333"/>
<path d="M147.715 329.839L145.679 331.854C144.707 332.817 143.137 332.809 142.174 331.834C141.213 330.864 141.22 329.295 142.192 328.332L144.229 326.317L147.715 329.839Z" fill="white"/>
<path d="M144.018 334.227C142.958 334.23 141.894 333.815 141.093 333.007C140.3 332.208 139.901 331.153 139.904 330.112C139.901 329.057 140.31 327.984 141.122 327.189L143.158 325.172C143.801 324.537 144.839 324.539 145.473 325.183C146.112 325.827 146.106 326.863 145.463 327.498L143.421 329.522C143.258 329.684 143.178 329.888 143.178 330.112C143.178 330.329 143.255 330.534 143.42 330.702C143.587 330.868 143.797 330.948 144.018 330.951C144.241 330.948 144.44 330.871 144.608 330.709L146.644 328.694C147.287 328.056 148.324 328.061 148.961 328.705C149.596 329.349 149.592 330.382 148.95 331.02L146.913 333.034C146.117 333.825 145.064 334.227 144.027 334.227C144.024 334.227 144.021 334.227 144.018 334.227Z" fill="#333333"/>
<path d="M155.329 319.646C154.222 319.646 144.567 322.229 144.567 326.636C144.567 331.04 155.692 331.265 157.106 329.853C158.102 328.854 159.101 319.646 155.329 319.646Z" fill="white"/>
<path d="M144.048 329.66C143.3 328.934 142.741 327.848 142.754 326.654C142.819 324.011 144.737 322.33 146.637 321.117C148.596 319.895 150.849 319.065 152.543 318.565C153.726 318.235 154.433 318.05 155.154 318.027V321.3L155.153 321.305C155.108 321.31 155.03 321.323 154.935 321.342C154.742 321.377 154.472 321.438 154.158 321.518C153.525 321.679 152.702 321.929 151.83 322.251C150.084 322.886 148.125 323.866 147.036 324.9C146.292 325.6 146.024 326.185 146.031 326.654C146.042 326.91 146.089 327.049 146.363 327.342C146.634 327.62 147.158 327.945 147.852 328.205C149.237 328.737 151.235 329.008 152.923 329.006C154.142 329.032 155.3 328.821 155.721 328.692C155.721 328.691 155.722 328.689 155.722 328.687C155.792 328.49 155.877 328.17 155.949 327.792C156.098 327.028 156.205 326.012 156.205 325.014C156.213 323.827 156.041 322.648 155.753 321.974C155.394 321.258 155.349 321.331 155.154 321.303V319.665V318.027C157.006 317.998 158.306 319.421 158.78 320.722C159.325 322.065 159.476 323.556 159.483 325.014C159.473 326.861 159.226 328.571 158.809 329.778C158.646 330.193 158.534 330.552 158.083 331.035C157.304 331.736 156.616 331.85 155.77 332.044C154.929 332.201 153.964 332.279 152.923 332.282C149.903 332.22 146.319 331.788 144.048 329.66Z" fill="#333333"/>
<path d="M326.378 369.271H324.136C322.236 354.181 309.369 342.51 293.763 342.51C278.154 342.51 265.288 354.181 263.39 369.271H137.589C135.691 354.181 122.825 342.51 107.218 342.51C91.611 342.51 78.7451 354.181 76.8468 369.271H69.164C66.7365 369.271 64.7703 370.761 64.7703 372.6C64.7703 374.438 66.7365 375.93 69.164 375.93H84.0077C83.8978 375.011 83.8356 374.078 83.8356 373.131C83.8356 371.815 83.9499 370.526 84.1566 369.271C86 358.195 95.6201 349.749 107.218 349.749C118.816 349.749 128.438 358.195 130.28 369.271C130.488 370.526 130.601 371.815 130.601 373.131C130.601 374.078 130.538 375.011 130.428 375.93H270.551C270.441 375.011 270.379 374.078 270.379 373.131C270.379 371.815 270.492 370.526 270.701 369.271C272.542 358.195 282.163 349.749 293.763 349.749C305.359 349.749 314.981 358.195 316.822 369.271C317.028 370.526 317.145 371.815 317.145 373.131C317.145 374.078 317.083 375.011 316.972 375.93H326.378C328.804 375.93 330.77 374.438 330.77 372.6C330.77 370.761 328.804 369.271 326.378 369.271Z" fill="white"/>
<path d="M263.098 377.522H137.533H130.253C129.786 377.522 129.338 377.321 129.026 376.97C128.716 376.62 128.57 376.152 128.628 375.689C128.729 374.826 128.786 373.96 128.788 373.086C128.786 371.863 128.682 370.666 128.486 369.495C126.776 359.2 117.827 351.338 107.043 351.341C96.2558 351.338 87.3079 359.2 85.5961 369.495C85.4024 370.666 85.2968 371.863 85.2968 373.086C85.2968 373.96 85.3532 374.826 85.4588 375.689C85.5137 376.152 85.3677 376.619 85.0554 376.97C84.746 377.321 84.2978 377.522 83.8323 377.522L76.5528 377.521H68.9885C67.4401 377.519 66.0088 377.055 64.8912 376.215C63.7852 375.387 62.9539 374.083 62.9568 372.556C62.9539 371.029 63.7852 369.724 64.8912 368.895C66.0088 368.055 67.4401 367.591 68.9885 367.59H75.2589C77.8685 352.387 91.0958 340.829 107.043 340.826C122.99 340.829 136.214 352.386 138.826 367.587H261.802C264.412 352.386 277.639 340.829 293.587 340.826C309.53 340.829 322.76 352.387 325.371 367.59H326.203V370.863H323.96C323.133 370.863 322.436 370.25 322.334 369.43C320.535 355.153 308.357 344.099 293.587 344.1C278.816 344.099 266.635 355.153 264.84 369.43C264.736 370.25 264.04 370.863 263.215 370.863H137.414C136.588 370.863 135.89 370.25 135.789 369.43C133.99 355.153 121.813 344.099 107.043 344.1C92.2712 344.099 80.0921 355.153 78.295 369.43C78.1923 370.25 77.4955 370.863 76.6728 370.863H68.9885C68.1095 370.861 67.3433 371.143 66.8705 371.508C66.3862 371.885 66.2329 372.242 66.2329 372.556C66.2329 372.868 66.3862 373.225 66.8705 373.603C67.3433 373.967 68.1095 374.247 68.9885 374.245H82.0496C82.0308 373.861 82.0222 373.477 82.0222 373.086C82.0193 371.675 82.1451 370.296 82.3648 368.957C84.3368 357.101 94.6278 348.069 107.043 348.063C119.455 348.069 129.748 357.101 131.719 368.957C131.942 370.296 132.065 371.675 132.065 373.086C132.065 373.477 132.054 373.861 132.034 374.245H268.593C268.574 373.861 268.564 373.477 268.564 373.086C268.564 371.675 268.687 370.296 268.908 368.957C270.88 357.101 281.174 348.069 293.587 348.063C305.998 348.069 316.292 357.101 318.262 368.957C318.484 370.296 318.607 371.675 318.607 373.086C318.607 373.477 318.598 373.861 318.579 374.245H326.203C327.08 374.247 327.846 373.967 328.318 373.603C328.801 373.225 328.955 372.868 328.955 372.556C328.955 372.242 328.801 371.885 328.318 371.508C327.846 371.143 327.08 370.861 326.203 370.863V369.226V367.59C327.75 367.591 329.181 368.055 330.297 368.895C331.405 369.724 332.233 371.029 332.23 372.556C332.233 374.083 331.405 375.387 330.297 376.215C329.181 377.055 327.75 377.519 326.203 377.521H324.077H316.796C316.328 377.521 315.884 377.321 315.572 376.97C315.261 376.62 315.112 376.152 315.17 375.689C315.273 374.829 315.329 373.961 315.33 373.086C315.329 371.863 315.226 370.666 315.03 369.495C313.321 359.2 304.371 351.338 293.587 351.341C282.802 351.338 273.851 359.2 272.139 369.495C271.947 370.666 271.84 371.863 271.84 373.086C271.84 373.961 271.898 374.829 272.001 375.686C272.057 376.149 271.913 376.618 271.602 376.968C271.291 377.321 270.843 377.522 270.376 377.522H263.098Z" fill="#333333"/>
<path d="M130.097 373.231C130.097 385.976 119.767 396.309 107.02 396.309C94.2724 396.309 83.9424 385.976 83.9424 373.231C83.9424 360.483 94.2724 350.153 107.02 350.153C119.767 350.153 130.097 360.483 130.097 373.231Z" fill="white"/>
<path d="M85.4065 373.25C85.4282 385.092 95.002 394.668 106.846 394.687C118.687 394.668 128.262 385.092 128.285 373.25H128.284C128.262 361.405 118.687 351.83 106.846 351.811C95.002 351.83 85.4282 361.405 85.4065 373.25ZM82.1289 373.25C82.1318 359.598 93.1919 348.533 106.846 348.533C120.498 348.533 131.56 359.598 131.561 373.25H131.56C131.56 386.901 120.498 397.964 106.846 397.966C93.1919 397.964 82.1318 386.901 82.1289 373.25Z" fill="#333333"/>
<path d="M93.4392 373.206C93.4536 380.691 99.5099 386.749 106.995 386.763C114.481 386.749 120.539 380.691 120.552 373.206C120.539 365.719 114.481 359.661 106.995 359.649C99.5099 359.661 93.4536 365.719 93.4392 373.206ZM90.1602 373.206C90.163 363.909 97.6984 356.373 106.995 356.37C116.292 356.373 123.826 363.909 123.826 373.206C123.826 382.503 116.292 390.037 106.995 390.04C97.6984 390.037 90.163 382.503 90.1602 373.206Z" fill="#F39313"/>
<path d="M105.187 388.401V358.011C105.187 357.105 105.921 356.37 106.825 356.37C107.728 356.37 108.463 357.105 108.463 358.011V388.401C108.463 389.307 107.728 390.04 106.825 390.04C105.921 390.04 105.187 389.307 105.187 388.401Z" fill="#F39313"/>
<path d="M119.374 382.274L93.051 367.07C92.2688 366.618 91.9999 365.616 92.4525 364.834C92.9035 364.05 93.9055 363.78 94.6891 364.234L121.012 379.436C121.796 379.893 122.063 380.89 121.612 381.677C121.31 382.2 120.758 382.494 120.191 382.494C119.913 382.494 119.633 382.423 119.374 382.274Z" fill="#F39313"/>
<path d="M92.4525 381.677C91.9999 380.89 92.2688 379.893 93.051 379.436L119.374 364.234C120.158 363.78 121.16 364.05 121.612 364.834C122.063 365.616 121.796 366.618 121.012 367.07L94.6905 382.274C94.4332 382.423 94.1512 382.494 93.8722 382.494C93.3084 382.494 92.7575 382.2 92.4525 381.677Z" fill="#F39313"/>
<path d="M114.496 373.264C114.496 377.409 111.137 380.763 106.992 380.763C102.847 380.763 99.4871 377.409 99.4871 373.264C99.4871 369.119 102.847 365.762 106.992 365.762C111.137 365.762 114.496 369.119 114.496 373.264Z" fill="white"/>
<path d="M100.948 373.217C100.955 376.454 103.574 379.071 106.814 379.08C110.057 379.071 112.676 376.454 112.682 373.217C112.676 369.977 110.058 367.36 106.814 367.354C103.574 367.36 100.955 369.977 100.948 373.217ZM97.6736 373.217C97.6736 368.167 101.767 364.078 106.814 364.078C111.864 364.078 115.958 368.167 115.958 373.217C115.958 378.266 111.865 382.354 106.814 382.354C101.767 382.354 97.6736 378.266 97.6736 373.217Z" fill="#F39313"/>
<path d="M316.891 373.231C316.891 385.976 306.563 396.309 293.815 396.309C281.068 396.309 270.74 385.976 270.74 373.231C270.74 360.483 281.068 350.153 293.815 350.153C306.563 350.153 316.891 360.483 316.891 373.231Z" fill="white"/>
<path d="M272.46 373.25C272.484 385.092 282.057 394.668 293.901 394.687C305.741 394.668 315.318 385.092 315.34 373.25C315.318 361.405 305.741 351.83 293.901 351.811C282.057 351.83 272.484 361.405 272.46 373.25ZM269.185 373.25C269.185 359.598 280.248 348.533 293.901 348.533C307.554 348.533 318.614 359.598 318.614 373.25C318.614 386.901 307.554 397.964 293.901 397.966C280.248 397.964 269.185 386.901 269.185 373.25Z" fill="#333333"/>
<path d="M280.235 373.206C280.248 380.691 286.307 386.749 293.792 386.763C301.277 386.749 307.339 380.691 307.352 373.206C307.339 365.722 301.277 359.661 293.792 359.649C286.307 359.661 280.248 365.719 280.235 373.206ZM276.958 373.206C276.96 363.909 284.496 356.373 293.792 356.37C303.088 356.373 310.624 363.909 310.625 373.206C310.624 382.503 303.088 390.037 293.792 390.04C284.496 390.037 276.96 382.503 276.958 373.206Z" fill="#F39313"/>
<path d="M292.243 388.401V358.011C292.243 357.105 292.974 356.37 293.879 356.37C294.782 356.37 295.517 357.105 295.517 358.011V388.401C295.517 389.307 294.782 390.04 293.879 390.04C292.974 390.04 292.243 389.307 292.243 388.401Z" fill="#F39313"/>
<path d="M306.171 382.274L279.849 367.07C279.066 366.618 278.798 365.616 279.249 364.834C279.702 364.05 280.702 363.78 281.486 364.234L307.806 379.436C308.59 379.893 308.86 380.89 308.407 381.677C308.102 382.2 307.554 382.494 306.988 382.494C306.71 382.494 306.428 382.423 306.171 382.274Z" fill="#F39313"/>
<path d="M279.249 381.677C278.798 380.89 279.066 379.893 279.849 379.436L306.171 364.234C306.954 363.78 307.955 364.05 308.409 364.834C308.861 365.616 308.592 366.618 307.81 367.07L281.486 382.274C281.23 382.423 280.948 382.494 280.669 382.494C280.104 382.494 279.551 382.2 279.249 381.677Z" fill="#F39313"/>
<path d="M301.286 373.207C301.286 377.352 297.93 380.715 293.785 380.715C289.64 380.715 286.284 377.352 286.284 373.207C286.284 369.062 289.64 365.698 293.785 365.698C297.93 365.698 301.286 369.062 301.286 373.207Z" fill="white"/>
<path d="M288.007 373.226C288.013 376.467 290.633 379.091 293.871 379.095C297.108 379.091 299.725 376.467 299.732 373.226C299.725 369.984 297.108 367.36 293.871 367.354C290.633 367.36 288.013 369.984 288.007 373.226ZM284.73 373.226C284.731 368.178 288.817 364.08 293.871 364.078C298.923 364.08 303.009 368.178 303.009 373.226C303.009 378.274 298.923 382.371 293.871 382.373C288.817 382.371 284.731 378.274 284.73 373.226Z" fill="#F39313"/>
<path d="M26.279 398.501C25.0704 398.501 24.0945 397.522 24.0945 396.317C24.0945 395.109 25.0704 394.131 26.279 394.131H382.507C383.712 394.131 384.691 395.109 384.691 396.317C384.691 397.522 383.712 398.501 382.507 398.501H26.279Z" fill="#333333"/>
<path d="M605.715 440.611H427.576C413.695 440.611 407.042 438.535 407.042 421.103L407.556 123.351C407.556 105.882 411.642 102.302 425.523 102.302L603.15 101.789C617.056 101.789 618.546 107.934 618.546 125.404L619.062 411.862C619.062 429.297 619.584 440.611 605.715 440.611ZM607.086 68.0782H418.849C402.777 68.0782 381.885 87.187 381.885 107.386V449.728C381.885 469.924 401.409 486.302 417.48 486.302H607.765C623.841 486.302 645.414 469.924 645.414 449.728V107.386C645.414 87.187 623.155 68.0782 607.086 68.0782Z" fill="white"/>
<path d="M395.279 82.2482C388.419 89.1113 384.185 98.571 384.185 109.04L384.183 446.326C384.185 456.794 388.419 466.251 395.279 473.117C402.142 479.974 411.602 484.213 422.075 484.213L605.745 484.216C616.21 484.213 625.67 479.974 632.533 473.117C639.395 466.251 643.629 456.794 643.634 446.326V109.04C643.629 98.571 639.395 89.1113 632.533 82.2482C625.67 75.3881 616.21 71.1505 605.745 71.1505H422.075C411.602 71.1505 402.144 75.3881 395.279 82.2482ZM422.075 488.579C398.732 488.579 379.815 469.664 379.812 446.326L379.815 109.04C379.815 85.7007 398.732 66.7828 422.075 66.7828H605.745C629.079 66.7828 647.997 85.7036 648 109.04V446.326C647.997 469.664 629.079 488.579 605.745 488.582L422.075 488.579Z" fill="#333333"/>
<path d="M410.864 113.913V430.603C410.874 435.256 414.64 439.027 419.294 439.034H608.599C613.255 439.027 617.024 435.255 617.031 430.603V113.913C617.024 109.258 613.255 105.487 608.599 105.48H419.294C414.64 105.487 410.874 109.258 410.864 113.913ZM419.294 443.401C412.223 443.4 406.498 437.67 406.498 430.603V113.913C406.498 106.844 412.224 101.112 419.294 101.111H608.599C615.67 101.112 621.399 106.844 621.399 113.913V430.603C621.399 437.672 615.67 443.4 608.599 443.401H419.294Z" fill="#333333"/>
<path d="M476.154 463.175C476.163 466.623 478.953 469.416 482.404 469.424H545.048C548.494 469.416 551.291 466.623 551.295 463.175C551.291 459.725 548.494 456.929 545.048 456.923H482.404C478.953 456.929 476.163 459.725 476.154 463.175ZM482.404 473.791C476.537 473.79 471.786 469.036 471.786 463.175C471.786 457.311 476.537 452.559 482.404 452.554H545.048C550.912 452.559 555.663 457.309 555.663 463.175C555.663 469.036 550.912 473.79 545.048 473.791H482.404Z" fill="#333333"/>
<path d="M462.572 87.6684C461.364 87.6684 460.387 86.691 460.387 85.4838C460.387 84.278 461.364 83.2993 462.572 83.2993H536.059C537.264 83.2993 538.242 84.278 538.242 85.4838C538.242 86.691 537.264 87.6684 536.059 87.6684H462.572Z" fill="#333333"/>
<path d="M552.99 87.6669C551.783 87.6669 550.806 86.6896 550.806 85.4838C550.806 84.2766 551.783 83.2993 552.99 83.2993H565.035C566.242 83.2993 567.223 84.2766 567.223 85.4838C567.223 86.6896 566.242 87.6669 565.035 87.6669H552.99Z" fill="#333333"/>
<path d="M408.682 148.552C407.475 148.552 406.498 147.574 406.498 146.368C406.498 145.161 407.475 144.183 408.682 144.183H619.218C620.423 144.183 621.399 145.161 621.399 146.368C621.399 147.574 620.423 148.552 619.218 148.552H408.682Z" fill="#333333"/>
<path d="M419.452 135.525V127.779C419.452 126.57 420.428 125.594 421.636 125.594C422.841 125.594 423.818 126.57 423.818 127.779V135.525C423.818 136.729 422.841 137.71 421.636 137.71C420.428 137.71 419.452 136.729 419.452 135.525Z" fill="#333333"/>
<path d="M428.52 135.507V123.114C428.52 121.907 429.5 120.931 430.704 120.931C431.91 120.931 432.889 121.907 432.889 123.114V135.507C432.889 136.713 431.91 137.692 430.704 137.692C429.5 137.692 428.52 136.713 428.52 135.507Z" fill="#333333"/>
<path d="M437.847 135.492V118.452C437.847 117.245 438.826 116.267 440.033 116.267C441.239 116.267 442.215 117.245 442.215 118.452V135.492C442.215 136.698 441.239 137.675 440.033 137.675C438.826 137.675 437.847 136.698 437.847 135.492Z" fill="#333333"/>
<path d="M446.915 135.538V113.852C446.915 112.646 447.89 111.669 449.099 111.669C450.305 111.669 451.284 112.646 451.284 113.852V135.538C451.284 136.744 450.305 137.721 449.099 137.721C447.89 137.721 446.915 136.744 446.915 135.538Z" fill="#333333"/>
<path d="M572.276 134.245H603.596V115.648H572.276V134.245ZM570.093 138.615C569.514 138.615 568.955 138.382 568.546 137.975C568.141 137.568 567.905 137.007 567.905 136.429V113.466C567.905 112.889 568.141 112.327 568.546 111.92C568.955 111.514 569.514 111.28 570.093 111.28H605.782V113.466V111.28C606.356 111.28 606.919 111.514 607.326 111.92C607.732 112.328 607.965 112.889 607.965 113.466V136.429C607.965 137.005 607.732 137.568 607.326 137.975C606.919 138.382 606.356 138.615 605.782 138.615H570.093Z" fill="#333333"/>
<path d="M561.541 122.385V120.201V122.385ZM563.725 127.428H567.938V122.385H563.725V127.428ZM561.541 131.797C560.965 131.797 560.404 131.564 559.995 131.158C559.588 130.75 559.355 130.188 559.355 129.613V120.201C559.355 119.625 559.588 119.061 559.995 118.657C560.404 118.249 560.965 118.016 561.541 118.016H570.125C570.698 118.016 571.261 118.249 571.668 118.657C572.075 119.061 572.308 119.625 572.308 120.201V129.613C572.308 130.188 572.075 130.75 571.668 131.157C571.261 131.564 570.698 131.797 570.125 131.797H561.541Z" fill="#333333"/>
<path d="M594.591 129.431V120.396C594.591 119.189 595.567 118.21 596.774 118.21C597.981 118.21 598.957 119.189 598.957 120.396V129.431C598.957 130.637 597.981 131.613 596.774 131.613C595.567 131.613 594.591 130.637 594.591 129.431Z" fill="#333333"/>
<path d="M585.782 129.428V120.394C585.782 119.188 586.759 118.21 587.966 118.21C589.172 118.21 590.151 119.188 590.151 120.394V129.428C590.151 130.637 589.172 131.613 587.966 131.613C586.759 131.613 585.782 130.637 585.782 129.428Z" fill="#333333"/>
<path d="M576.714 129.431V120.395C576.714 119.188 577.691 118.21 578.897 118.21C580.104 118.21 581.083 119.188 581.083 120.395V129.431C581.083 130.635 580.104 131.614 578.897 131.614C577.691 131.614 576.714 130.635 576.714 129.431Z" fill="#333333"/>
<path d="M487.96 424.407C486.755 424.407 485.777 423.43 485.777 422.224C485.777 421.017 486.755 420.04 487.96 420.04H507.839C509.045 420.04 510.024 421.017 510.024 422.224C510.024 423.43 509.045 424.407 507.839 424.407H487.96Z" fill="#333333"/>
<path d="M518.274 424.407C517.066 424.407 516.089 423.43 516.089 422.224C516.089 421.017 517.066 420.04 518.274 420.04H523.694C524.901 420.04 525.878 421.017 525.878 422.224C525.878 423.43 524.901 424.407 523.694 424.407H518.274Z" fill="#333333"/>
<path d="M534.337 424.407C533.129 424.407 532.152 423.43 532.152 422.224C532.152 421.017 533.129 420.04 534.337 420.04H539.758C540.963 420.04 541.943 421.017 541.943 422.224C541.943 423.43 540.963 424.407 539.758 424.407H534.337Z" fill="#333333"/>
<path d="M454.611 398.131H445.291C445.111 398.131 444.931 398.125 444.754 398.114C444.674 398.125 444.595 398.131 444.512 398.131C444.298 398.131 444.093 398.089 443.905 398.014C440.023 397.353 437.071 393.977 437.069 389.91L437.071 380.587C437.071 376.515 440.027 373.138 443.914 372.483C444.099 372.411 444.301 372.37 444.512 372.37C444.592 372.37 444.67 372.376 444.745 372.386C444.926 372.375 445.108 372.369 445.291 372.369H454.611C454.793 372.369 454.974 372.375 455.154 372.386C455.23 372.376 455.308 372.37 455.386 372.37C455.598 372.37 455.801 372.411 455.987 372.484C459.872 373.139 462.829 376.515 462.831 380.587V389.91C462.829 393.977 459.876 397.355 455.994 398.014C455.806 398.089 455.601 398.131 455.386 398.131C455.305 398.131 455.225 398.125 455.146 398.114C454.969 398.125 454.79 398.131 454.611 398.131ZM451.588 375.643V394.855H453.749V375.643H451.588ZM446.149 375.643V394.853H448.31V375.643H446.149ZM442.878 376.274C441.371 377.121 440.351 378.735 440.348 380.587V389.91C440.351 391.762 441.371 393.376 442.878 394.222V376.274ZM457.025 376.275V394.222C458.533 393.374 459.551 391.762 459.555 389.91V380.587C459.551 378.735 458.533 377.121 457.025 376.275Z" fill="#333333"/>
<path d="M572.471 372.386C572.65 372.375 572.832 372.369 573.016 372.369H582.339C582.522 372.369 582.702 372.375 582.883 372.386C582.958 372.376 583.036 372.37 583.114 372.37C583.325 372.37 583.526 372.411 583.711 372.483C587.596 373.136 590.557 376.515 590.557 380.587V389.91C590.553 393.979 587.601 397.356 583.72 398.015C583.532 398.089 583.328 398.131 583.114 398.131C583.033 398.131 582.952 398.125 582.874 398.114C582.698 398.125 582.519 398.131 582.339 398.131L577.748 398.13C577.726 398.131 577.703 398.131 577.68 398.131C577.656 398.131 577.633 398.131 577.61 398.13L573.016 398.128C572.839 398.128 572.664 398.122 572.491 398.112C572.408 398.124 572.323 398.131 572.238 398.131C572.019 398.131 571.81 398.088 571.619 398.01C567.746 397.347 564.799 393.973 564.796 389.91V380.587C564.796 376.517 567.753 373.139 571.636 372.484C571.823 372.411 572.025 372.37 572.238 372.37C572.317 372.37 572.394 372.376 572.471 372.386ZM573.876 375.643V394.853H576.04V375.643H573.876ZM579.315 375.643V394.853H581.476V375.643H579.315ZM584.754 376.275V394.22C586.26 393.373 587.278 391.761 587.281 389.91V380.587C587.278 378.736 586.26 377.123 584.754 376.275ZM570.6 376.277C569.093 377.124 568.074 378.736 568.072 380.587V389.91C568.074 391.761 569.093 393.373 570.6 394.22V376.277Z" fill="#333333"/>
<path d="M513.757 285.771C518.196 285.771 556.74 285.713 561.809 293.143C578.079 317.003 593.048 323.511 593.048 337.12C593.048 337.12 595.414 378.838 590.976 380.907C586.537 382.979 559.024 385.347 513.757 385.347V285.771Z" fill="white"/>
<path d="M580.366 329.792V329.788L579.727 328.553L580.366 329.792ZM564.407 342.012C565.273 342.31 566.802 342.496 568.613 342.49C571.878 342.492 576.102 341.961 579.983 341.149C582.354 340.656 583.779 339.884 584.551 339.138C585.316 338.379 585.549 337.68 585.565 336.807C585.591 335.418 584.686 333.57 583.438 332.186C582.329 330.85 580.774 330.045 580.419 330.037C570.775 335.013 565.794 338.623 564.25 340.634C563.818 341.172 563.698 341.529 563.676 341.646C563.745 341.715 563.991 341.874 564.407 342.012ZM561.376 343.978C560.796 343.434 560.377 342.561 560.393 341.688C560.528 339.407 562.123 337.795 564.993 335.494C567.924 333.242 572.407 330.501 578.972 327.099C579.43 326.863 579.916 326.769 580.366 326.771C582.493 326.87 584.232 328.241 585.887 330.012C587.475 331.822 588.816 334.174 588.845 336.807C588.857 338.436 588.218 340.174 586.823 341.5C585.429 342.829 583.414 343.776 580.654 344.355C576.585 345.2 572.216 345.764 568.613 345.768C565.583 345.7 563.139 345.544 561.376 343.978Z" fill="#333333"/>
<path d="M580.939 340.753C583.466 340.747 585.508 338.703 585.515 336.178C585.508 333.651 583.466 331.607 580.939 331.603C578.412 331.607 576.371 333.653 576.365 336.178C576.371 338.703 578.412 340.747 580.939 340.753ZM573.087 336.178C573.09 331.841 576.6 328.328 580.939 328.325C585.278 328.325 588.793 331.841 588.793 336.178C588.793 340.513 585.278 344.029 580.939 344.03C576.6 344.029 573.09 340.514 573.087 336.178Z" fill="#333333"/>
<path d="M567.297 339.517C567.297 341.064 568.55 342.315 570.099 342.317C571.639 342.315 572.892 341.064 572.896 339.517C572.892 337.971 571.641 336.719 570.099 336.717C568.55 336.719 567.297 337.973 567.294 339.517H567.297ZM564.019 339.517C564.019 336.161 566.739 333.442 570.099 333.442C573.45 333.443 576.17 336.161 576.172 339.517C576.17 342.873 573.45 345.592 570.099 345.596C566.739 345.592 564.019 342.873 564.019 339.517Z" fill="#333333"/>
<path d="M589.485 369.273C588.517 373.117 585.765 376.935 580.746 378.607C579.066 379.168 577.387 379.423 575.793 379.428C573.19 379.422 570.802 378.747 568.961 377.47C567.131 376.212 565.822 374.209 565.833 371.871C565.84 369.459 567.15 367.009 569.703 364.71C572.274 362.401 576.15 360.157 581.722 358.062V358.064C582.416 357.805 583.118 357.666 583.809 357.666C585.822 357.652 587.483 358.86 588.434 360.404C589.413 361.967 589.887 363.909 589.89 365.982C589.895 366.612 589.85 367.262 589.754 367.917C589.785 368.041 589.801 368.171 589.801 368.305C589.801 368.667 589.683 369.001 589.485 369.273ZM581.152 374.907H571.019C572.184 375.654 573.871 376.153 575.793 376.15C577.03 376.15 578.367 375.946 579.709 375.501C580.222 375.329 580.702 375.129 581.152 374.907ZM585.816 369.945H569.623C569.304 370.575 569.153 371.142 569.119 371.632H584.917C585.277 371.091 585.576 370.525 585.816 369.945ZM586.575 365.118H574.593C573.774 365.642 573.061 366.161 572.447 366.669H586.585C586.601 366.439 586.611 366.209 586.613 365.982C586.614 365.687 586.601 365.398 586.575 365.118ZM585.439 361.841C584.928 361.195 584.425 360.952 583.809 360.942C583.551 360.942 583.248 360.991 582.875 361.129L582.3 359.598L582.872 361.132C582.244 361.367 581.639 361.603 581.061 361.841H585.439Z" fill="#333333"/>
<path d="M582.282 319.425C581.378 319.364 580.695 318.581 580.758 317.68C580.817 316.775 581.603 316.094 582.506 316.158C583.366 316.216 584.157 316.255 584.869 316.255C586.749 316.259 588.042 315.989 588.905 315.441C589.762 314.896 590.456 314.021 591.019 312.149C591.098 311.865 591.13 311.643 591.13 311.463C591.111 310.954 590.962 310.639 590.469 310.174C589.978 309.73 589.12 309.287 588.082 308.953C586.008 308.275 583.256 308.021 581.349 308.027C579.658 308.041 579.353 308.384 579.262 308.517C579.106 308.667 578.931 309.454 578.952 310.768C578.952 311.246 578.964 311.784 578.964 312.376C578.964 313.279 578.231 314.014 577.327 314.014C576.422 314.014 575.688 313.279 575.688 312.376C575.688 311.828 575.678 311.291 575.678 310.768C575.701 309.378 575.672 307.978 576.596 306.611C577.588 305.229 579.299 304.73 581.349 304.749C584.624 304.813 589.609 305.173 592.642 307.726C593.652 308.593 594.419 309.931 594.403 311.463C594.403 311.99 594.319 312.523 594.165 313.062C593.49 315.4 592.332 317.173 590.643 318.219C588.96 319.262 587.013 319.528 584.869 319.531C584.043 319.531 583.183 319.487 582.282 319.425Z" fill="#333333"/>
<path d="M585.087 313.208C584.183 313.208 583.45 312.475 583.45 311.568C583.45 310.663 584.183 309.93 585.087 309.93H592.799C593.702 309.93 594.437 310.663 594.437 311.568C594.437 312.475 593.702 313.208 592.799 313.208H585.087Z" fill="#333333"/>
<path d="M513.881 285.771C509.444 285.771 470.899 285.713 465.833 293.143C449.559 317.003 434.591 323.511 434.591 337.12C434.591 337.12 432.224 378.838 436.661 380.907C441.098 382.979 468.616 385.347 513.881 385.347V285.771Z" fill="white"/>
<path d="M513.921 284.155L513.968 284.153C514.015 284.153 514.093 284.153 514.192 284.152C518.279 284.163 540.337 284.159 553.577 287.331C558.004 288.451 561.521 289.695 563.367 292.242C571.414 304.038 579.118 311.524 584.945 317.892C590.722 324.197 594.869 329.625 594.895 337.087C594.932 337.796 595.524 348.558 595.524 359.29C595.509 367.127 595.242 374.817 594.091 379.022C593.638 380.414 593.326 381.607 591.879 382.413C590.354 383.096 587.821 383.58 583.824 384.119C579.862 384.64 574.564 385.131 567.992 385.558C554.853 386.411 536.629 387.005 513.968 387.007L513.908 387.005C479.94 387.002 455.975 385.674 444.105 384.121C440.111 383.579 437.578 383.099 436.052 382.412C434.606 381.61 434.294 380.414 433.839 379.022C433.446 377.602 433.169 375.834 432.96 373.781C432.543 369.692 432.406 364.502 432.406 359.297C432.406 348.723 432.98 338.122 433.036 337.123C433.048 329.647 437.197 324.208 442.985 317.89C448.816 311.523 456.514 304.04 464.561 292.242C466.411 289.698 469.925 288.45 474.354 287.331C478.783 286.265 484.16 285.57 489.54 285.1C500.286 284.163 511.033 284.153 513.739 284.153L513.921 284.155ZM514.192 287.426H514.06L514.05 287.428L513.968 287.429H513.966H513.739C509.755 287.421 487.662 287.481 475.118 290.516C470.952 291.464 467.918 292.972 467.268 294.087C459.041 306.15 451.124 313.846 445.401 320.102C439.639 326.4 436.308 331.021 436.312 337.142L436.31 337.236C436.31 337.255 435.682 348.315 435.682 359.297C435.673 366.513 435.971 373.756 436.824 377.46C437.048 378.543 437.401 379.308 437.531 379.487C438.341 379.841 440.855 380.404 444.532 380.871C448.388 381.378 453.63 381.867 460.15 382.289C473.184 383.138 491.333 383.729 513.913 383.731L513.968 383.729C547.864 383.732 571.809 382.395 583.401 380.872C587.056 380.408 589.566 379.849 590.388 379.493C590.41 379.464 590.446 379.411 590.487 379.341C590.612 379.114 590.78 378.693 590.936 378.14C591.246 377.026 591.513 375.39 591.713 373.448C592.109 369.558 592.248 364.432 592.248 359.29C592.248 348.312 591.624 337.256 591.624 337.233L591.617 337.142C591.624 331.018 588.29 326.4 582.53 320.104C576.805 313.848 568.89 306.149 560.663 294.087C560.016 292.971 556.976 291.464 552.811 290.517C548.646 289.513 543.388 288.822 538.106 288.365C527.538 287.444 516.868 287.426 514.192 287.426Z" fill="#333333"/>
<path fill-rule="evenodd" clip-rule="evenodd" d="M475.574 350.748C475.214 350.319 474.862 349.878 474.519 349.429C472.286 346.448 470.394 343.223 469.495 340.3C469.306 340.032 469.195 339.706 469.195 339.355C469.195 339.304 469.198 339.253 469.202 339.203C469.042 338.487 468.95 337.795 468.937 337.136C468.937 336.098 469.169 335.006 469.938 334.129C470.709 333.244 471.902 332.845 473.082 332.859H513.829L513.844 332.859H554.674C555.857 332.846 557.046 333.244 557.816 334.13C558.583 335.006 558.819 336.098 558.819 337.136C558.78 339.871 557.366 343.056 555.395 346.289C553.41 349.491 550.837 352.616 548.171 354.716C546.385 356.098 544.559 357.115 542.544 357.142H525.37C519.151 357.142 513.855 357.142 513.844 357.144C513.811 357.144 513.779 357.143 513.747 357.141C511.731 357.141 491.951 357.141 485.216 357.144C483.195 357.115 481.369 356.099 479.583 354.716C478.398 353.782 477.234 352.648 476.13 351.395C475.892 351.233 475.699 351.009 475.574 350.748ZM513.844 353.866C513.813 353.866 513.782 353.867 513.752 353.869C511.766 353.866 491.987 353.866 485.231 353.866H485.216C484.471 353.894 483.082 353.323 481.604 352.14C481.418 351.995 481.231 351.841 481.043 351.68H513.835C513.836 351.68 513.837 351.68 513.839 351.68C513.84 351.68 513.841 351.68 513.842 351.68H546.709C546.521 351.841 546.334 351.995 546.148 352.14C544.674 353.32 543.287 353.894 542.544 353.868C535.442 353.866 513.871 353.866 513.844 353.866ZM513.839 348.404C513.84 348.404 513.841 348.404 513.842 348.404H549.868C550.127 348.089 550.382 347.767 550.632 347.44C550.92 347.07 551.201 346.691 551.473 346.305H476.291C476.798 347.026 477.335 347.732 477.887 348.404H513.835C513.836 348.404 513.837 348.404 513.839 348.404ZM473.254 340.994C473.535 341.648 473.868 342.333 474.244 343.028H553.488L553.502 343.028C553.878 342.33 554.211 341.645 554.494 340.994H513.842L513.832 340.994L513.821 340.994H473.254ZM513.832 337.717L513.842 337.717H555.512C555.538 337.505 555.548 337.311 555.541 337.136C555.541 336.568 555.405 336.339 555.362 336.299C555.36 336.297 555.357 336.295 555.355 336.292L555.348 336.286C555.302 336.244 555.2 336.148 554.674 336.135H513.928L513.913 336.135H513.844V336.14C513.804 336.14 513.764 336.138 513.725 336.135H473.082C472.553 336.148 472.451 336.245 472.405 336.288C472.4 336.293 472.396 336.297 472.392 336.3C472.347 336.339 472.211 336.566 472.211 337.136C472.206 337.31 472.218 337.504 472.244 337.717H513.821L513.832 337.717Z" fill="#F39313"/>
<path d="M444.029 332.188C442.782 333.573 441.874 335.418 441.899 336.807C441.916 337.679 442.152 338.379 442.918 339.136C443.687 339.884 445.113 340.656 447.488 341.149C451.369 341.961 455.595 342.492 458.852 342.49C461.534 342.561 463.596 341.942 463.792 341.656C463.775 341.558 463.667 341.192 463.218 340.634C462.704 339.983 461.803 339.112 460.473 338.089C457.82 336.044 453.481 333.369 447.056 330.039C446.708 330.039 445.146 330.846 444.029 332.188ZM446.822 344.355C444.06 343.776 442.036 342.829 440.646 341.5C439.247 340.176 438.608 338.439 438.624 336.807C438.649 334.174 439.995 331.822 441.579 330.012C443.238 328.241 444.977 326.87 447.102 326.771C447.553 326.769 448.045 326.86 448.502 327.099L447.746 328.553L447.102 329.792L447.746 328.553L448.502 327.099C455.06 330.501 459.546 333.242 462.472 335.494C465.341 337.795 466.935 339.407 467.071 341.684C467.087 342.561 466.671 343.432 466.093 343.978C465.513 344.536 464.833 344.87 464.102 345.119C462.637 345.602 460.872 345.761 458.852 345.768C455.252 345.764 450.884 345.2 446.822 344.355Z" fill="#333333"/>
<path d="M442.159 336.178C442.163 338.703 444.208 340.747 446.734 340.753C449.259 340.747 451.304 338.703 451.308 336.178C451.304 333.653 449.259 331.607 446.734 331.603C444.208 331.607 442.163 333.653 442.159 336.178ZM438.883 336.178C438.883 331.841 442.398 328.328 446.734 328.325C451.069 328.325 454.584 331.841 454.586 336.178C454.584 340.514 451.069 344.029 446.734 344.03C442.398 344.029 438.883 340.514 438.883 336.178Z" fill="#333333"/>
<path d="M454.854 339.517C454.856 341.064 456.106 342.315 457.655 342.317C459.2 342.315 460.451 341.064 460.454 339.517C460.451 337.973 459.2 336.719 457.655 336.717C456.106 336.719 454.856 337.973 454.854 339.517ZM451.578 339.517C451.578 336.161 454.296 333.442 457.655 333.442C461.009 333.442 463.728 336.161 463.728 339.517H463.733C463.728 342.873 461.009 345.592 457.655 345.596C454.296 345.592 451.578 342.873 451.578 339.517Z" fill="#333333"/>
<path d="M437.983 367.919C437.888 367.265 437.843 366.615 437.847 365.984C437.854 363.91 438.323 361.967 439.305 360.404C440.254 358.86 441.916 357.652 443.928 357.666C444.616 357.666 445.322 357.805 446.014 358.062H446.016C451.592 360.157 455.462 362.401 458.032 364.71C460.586 367.009 461.895 369.459 461.9 371.871C461.906 374.209 460.608 376.212 458.775 377.467C456.937 378.747 454.546 379.422 451.946 379.428C450.352 379.423 448.673 379.168 446.995 378.607C441.971 376.937 439.216 373.114 438.249 369.268C438.052 368.998 437.937 368.665 437.937 368.305C437.937 368.172 437.953 368.042 437.983 367.919ZM456.713 374.907H446.588C447.037 375.129 447.517 375.328 448.03 375.5C449.376 375.946 450.706 376.15 451.946 376.15C453.865 376.153 455.556 375.654 456.713 374.907ZM458.111 369.945H441.919C442.159 370.525 442.456 371.091 442.818 371.632H458.616C458.581 371.142 458.431 370.575 458.111 369.945ZM453.142 365.118H441.161C441.135 365.398 441.12 365.689 441.122 365.984C441.123 366.211 441.133 366.439 441.149 366.669H455.286C454.672 366.161 453.959 365.642 453.142 365.118ZM446.677 361.841C446.097 361.603 445.494 361.367 444.865 361.132L445.442 359.598L444.864 361.129C444.493 360.991 444.185 360.942 443.928 360.942C443.312 360.952 442.808 361.195 442.299 361.841H446.677Z" fill="#333333"/>
<path d="M514.451 289.076C521.297 289.092 530.243 289.379 538.327 290.24C546.714 291.182 554.009 292.486 557.719 295.352C560.193 297.348 563.467 300.984 566.237 304.817C568.974 308.705 571.256 312.475 571.347 315.698C571.357 316.661 571.069 317.747 570.244 318.527C569.425 319.299 568.332 319.581 567.205 319.581H567.176C567.005 319.581 566.839 319.577 566.644 319.567C551.145 318.514 518.744 317.8 513.859 317.796C513.837 317.797 513.817 317.797 513.795 317.797C509.134 317.796 476.511 318.509 460.919 319.568C460.757 319.577 460.586 319.583 460.408 319.584H460.395C459.261 319.584 458.162 319.305 457.341 318.529C456.517 317.748 456.23 316.659 456.242 315.698C456.33 312.477 458.613 308.703 461.348 304.814C464.121 300.984 467.394 297.348 469.87 295.352C473.581 292.488 480.876 291.184 489.259 290.241C497.607 289.355 506.873 289.076 513.795 289.074L514.451 289.076ZM513.731 292.352C506.904 292.353 497.748 292.632 489.607 293.497C481.479 294.311 474.2 295.968 471.92 297.908C469.841 299.568 466.605 303.117 464.008 306.731C461.373 310.291 459.425 314.223 459.516 315.698C459.524 316.123 459.602 316.152 459.599 316.155C459.602 316.155 459.754 316.305 460.408 316.307C460.502 316.307 460.62 316.302 460.725 316.3C476.471 315.233 508.989 314.521 513.795 314.52H514.041C519.614 314.541 551.362 315.247 566.836 316.3C566.962 316.302 567.079 316.305 567.176 316.305C567.831 316.304 567.985 316.156 567.988 316.153C567.982 316.149 568.06 316.122 568.073 315.698C568.162 314.223 566.214 310.289 563.58 306.73C560.981 303.117 557.748 299.565 555.669 297.908C553.387 295.966 546.112 294.311 537.983 293.497C529.817 292.626 520.628 292.35 513.795 292.353C513.773 292.353 513.752 292.353 513.731 292.352Z" fill="#333333"/>
<path d="M436.95 318.221C435.261 317.174 434.099 315.403 433.426 313.068C433.266 312.526 433.183 311.986 433.183 311.465C433.167 309.932 433.937 308.595 434.946 307.726C435.956 306.835 437.191 306.264 438.497 305.839C441.108 304.999 444.063 304.753 446.24 304.749C448.29 304.733 449.999 305.233 450.991 306.614C451.916 307.976 451.887 309.378 451.91 310.766C451.91 311.29 451.9 311.825 451.9 312.377C451.9 313.28 451.169 314.013 450.265 314.013C449.36 314.013 448.626 313.28 448.626 312.377C448.626 311.788 448.636 311.246 448.636 310.766C448.66 309.455 448.484 308.671 448.326 308.518C448.235 308.385 447.926 308.044 446.24 308.027C443.389 307.963 438.592 308.725 437.119 310.176C436.623 310.639 436.474 310.956 436.459 311.465C436.461 311.65 436.488 311.865 436.569 312.137C437.135 314.021 437.827 314.897 438.682 315.442C439.546 315.99 440.839 316.26 442.717 316.256C443.428 316.256 444.217 316.217 445.086 316.159C445.987 316.098 446.769 316.776 446.831 317.681C446.892 318.584 446.211 319.366 445.308 319.426C444.403 319.489 443.542 319.532 442.717 319.533C440.576 319.529 438.628 319.265 436.95 318.221Z" fill="#333333"/>
<path d="M434.821 313.208C433.915 313.208 433.183 312.473 433.183 311.568C433.183 310.662 433.915 309.93 434.821 309.93H442.533C443.438 309.93 444.172 310.662 444.172 311.568C444.172 312.473 443.438 313.208 442.533 313.208H434.821Z" fill="#333333"/>
<path d="M547.558 380.314H480.253C474.415 380.305 469.274 376.564 469.196 371.225C469.274 365.887 474.415 362.145 480.253 362.135H547.558C553.399 362.145 558.536 365.887 558.615 371.225C558.536 376.564 553.399 380.305 547.558 380.314ZM482.622 375.42V377.038H487.579V375.42H482.622ZM490.855 375.42V377.038H495.809V375.42H490.855ZM499.084 375.42V377.038H504.039V375.42H499.084ZM507.316 375.42V377.038H512.267V375.42H507.316ZM515.544 375.42V377.038H520.499V375.42H515.544ZM523.775 375.42V377.038H528.728V375.42H523.775ZM532.004 375.42V377.038H536.959V375.42H532.004ZM540.234 375.42V377.038H545.19V375.42H540.234ZM479.349 376.999V375.42H474.888C476.059 376.259 477.61 376.847 479.349 376.999ZM552.922 375.42H548.463V376.999C550.202 376.847 551.752 376.259 552.922 375.42ZM472.569 372.143H479.349V370.309H472.569C472.503 370.61 472.47 370.915 472.47 371.225C472.47 371.535 472.503 371.842 472.569 372.143ZM482.622 370.309V372.143H487.579V370.309H482.622ZM490.855 370.309V372.143H495.809V370.309H490.855ZM499.084 370.309V372.143H504.039V370.309H499.084ZM507.316 370.309V372.143H512.267V370.309H507.316ZM515.544 370.309V372.143H520.499V370.309H515.544ZM523.775 370.309V372.143H528.728V370.309H523.775ZM532.004 370.309V372.143H536.959V370.309H532.004ZM540.234 370.309V372.143H545.19V370.309H540.234ZM555.241 370.309H548.463V372.143H555.242C555.307 371.842 555.34 371.535 555.342 371.225H555.337C555.337 370.915 555.306 370.61 555.241 370.309ZM479.349 365.452C477.609 365.603 476.057 366.193 474.886 367.03H479.349V365.452ZM482.622 365.413V367.03H487.579V365.413H482.622ZM490.855 365.413V367.03H495.809V365.413H490.855ZM499.084 365.413V367.03H504.039V365.413H499.084ZM507.316 365.413V367.03H512.267V365.413H507.316ZM515.544 365.413V367.03H520.499V365.413H515.544ZM523.775 365.413V367.03H528.728V365.413H523.775ZM532.004 365.413V367.03H536.959V365.413H532.004ZM540.234 365.413V367.03H545.19V365.413H540.234ZM548.463 365.452V367.03H552.924C551.753 366.192 550.202 365.605 548.463 365.452Z" fill="#333333"/>
<path d="M408.684 398.627C407.475 398.627 406.498 397.65 406.498 396.443C406.498 395.236 407.475 394.261 408.684 394.261H619.246C620.453 394.261 621.43 395.236 621.43 396.443C621.43 397.65 620.453 398.627 619.246 398.627H408.684Z" fill="#333333"/>
<path d="M37.6517 216.956C36.7467 216.956 36.0122 216.223 36.0122 215.32C36.0122 214.415 36.7467 213.682 37.6517 213.682H110.125C111.032 213.682 111.765 214.415 111.765 215.32C111.765 216.223 111.032 216.956 110.125 216.956H37.6517Z" fill="#333333"/>
<path d="M127.294 133.793C126.388 133.793 125.654 133.06 125.654 132.156C125.654 131.25 126.388 130.517 127.294 130.517H146.126C147.03 130.517 147.763 131.25 147.763 132.156C147.763 133.06 147.03 133.793 146.126 133.793H127.294Z" fill="#333333"/>
<path d="M153.717 133.793C152.814 133.793 152.081 133.06 152.081 132.156C152.081 131.25 152.814 130.517 153.717 130.517H158.631C159.536 130.517 160.271 131.25 160.271 132.156C160.271 133.06 159.536 133.793 158.631 133.793H153.717Z" fill="#333333"/>
<path d="M343.11 50.887C342.205 50.887 341.469 50.154 341.469 49.2489C341.469 48.3439 342.205 47.6109 343.11 47.6109H361.941C362.846 47.6109 363.58 48.3439 363.58 49.2489C363.58 50.154 362.846 50.887 361.941 50.887H343.11Z" fill="#333333"/>
<path d="M369.791 50.8855C368.886 50.8855 368.154 50.1525 368.154 49.2489C368.154 48.3424 368.886 47.6109 369.791 47.6109H374.705C375.607 47.6109 376.342 48.3424 376.342 49.2489C376.342 50.1525 375.607 50.8855 374.705 50.8855H369.791Z" fill="#333333"/>
<path d="M278.853 164.431C277.95 164.431 277.217 163.696 277.217 162.793C277.217 161.888 277.95 161.153 278.853 161.153H294.414C295.318 161.153 296.051 161.888 296.051 162.793C296.051 163.696 295.318 164.431 294.414 164.431H278.853Z" fill="#333333"/>
<path d="M287.924 169.742C287.019 169.742 286.284 169.009 286.284 168.104C286.284 167.199 287.019 166.464 287.924 166.464H303.482C304.385 166.464 305.12 167.199 305.12 168.104C305.12 169.009 304.385 169.742 303.482 169.742H287.924Z" fill="#333333"/>
<path d="M490.785 535.757C489.879 535.757 489.145 535.022 489.145 534.119C489.145 533.212 489.879 532.481 490.785 532.481H506.342C507.247 532.481 507.981 533.212 507.981 534.119C507.981 535.022 507.247 535.757 506.342 535.757H490.785Z" fill="#333333"/>
<path d="M499.591 541.068C498.689 541.068 497.953 540.336 497.953 539.433C497.953 538.525 498.689 537.792 499.591 537.792H515.152C516.059 537.792 516.792 538.525 516.792 539.433C516.792 540.336 516.059 541.068 515.152 541.068H499.591Z" fill="#333333"/>
<path d="M110.97 493.981C110.064 493.981 109.332 493.247 109.332 492.34C109.332 491.437 110.064 490.704 110.97 490.704H126.528C127.432 490.704 128.165 491.437 128.165 492.34C128.165 493.247 127.432 493.981 126.528 493.981H110.97Z" fill="#333333"/>
<path d="M119.782 499.291C118.875 499.291 118.141 498.558 118.141 497.655C118.141 496.747 118.875 496.015 119.782 496.015H135.34C136.246 496.015 136.976 496.747 136.976 497.655C136.976 498.558 136.246 499.291 135.34 499.291H119.782Z" fill="#333333"/>
<path d="M208.126 437.436C207.221 437.436 206.488 436.701 206.488 435.796C206.488 434.892 207.221 434.159 208.126 434.159H231.053C231.956 434.159 232.691 434.892 232.691 435.796C232.691 436.701 231.956 437.436 231.053 437.436H208.126Z" fill="#333333"/>
<path d="M323.416 490.159C322.51 490.159 321.778 489.426 321.778 488.522C321.778 487.616 322.51 486.883 323.416 486.883H346.349C347.251 486.883 347.987 487.616 347.987 488.522C347.987 489.426 347.251 490.159 346.349 490.159H323.416Z" fill="#333333"/>
<path d="M24.6964 103.286C23.7914 103.286 23.0583 102.553 23.0583 101.648C23.0583 100.744 23.7914 100.01 24.6964 100.01H47.6263C48.5299 100.01 49.2629 100.744 49.2629 101.648C49.2629 102.553 48.5299 103.286 47.6263 103.286H24.6964Z" fill="#333333"/>
<path d="M589.878 30.6911C588.973 30.6911 588.242 29.9566 588.242 29.0501C588.242 28.1465 588.973 27.4135 589.878 27.4135H612.806C613.713 27.4135 614.444 28.1465 614.444 29.0501C614.444 29.9566 613.713 30.6911 612.806 30.6911H589.878Z" fill="#F39313"/>
<path d="M285.851 265.796C284.945 265.796 284.212 265.06 284.212 264.156C284.212 263.251 284.945 262.518 285.851 262.518H323.314C324.22 262.518 324.953 263.251 324.953 264.156C324.953 265.06 324.22 265.796 323.314 265.796H285.851Z" fill="#333333"/>
<path d="M331.968 265.796C331.061 265.796 330.328 265.06 330.328 264.156C330.328 263.251 331.061 262.518 331.968 262.518H338.517C339.423 262.518 340.156 263.251 340.156 264.156C340.156 265.06 339.423 265.796 338.517 265.796H331.968Z" fill="#333333"/>
<path d="M1.63661 295.136C0.733005 295.136 0 294.401 0 293.497C0 292.592 0.733005 291.859 1.63661 291.859H39.1052C40.0088 291.859 40.7433 292.592 40.7433 293.497C40.7433 294.401 40.0088 295.136 39.1052 295.136H1.63661Z" fill="#333333"/>
<path d="M48.0135 295.136C47.1085 295.136 46.3755 294.401 46.3755 293.497C46.3755 292.592 47.1085 291.859 48.0135 291.859H54.5643C55.4679 291.859 56.2009 292.592 56.2009 293.497C56.2009 294.401 55.4679 295.136 54.5643 295.136H48.0135Z" fill="#333333"/>
<path d="M175.955 249.579V253.419H172.115C171.21 253.419 170.475 254.152 170.475 255.056C170.475 255.962 171.21 256.694 172.115 256.694H175.955V260.535C175.955 261.439 176.686 262.172 177.591 262.172C178.496 262.172 179.229 261.439 179.229 260.535V256.694H183.068C183.973 256.694 184.708 255.962 184.708 255.056C184.708 254.152 183.973 253.419 183.068 253.419H179.229V249.579C179.229 248.676 178.496 247.941 177.591 247.941C176.686 247.941 175.955 248.676 175.955 249.579Z" fill="#F39313"/>
<path d="M435.515 470.199V459.244C435.515 458.341 436.25 457.606 437.153 457.606C438.058 457.606 438.793 458.341 438.793 459.244V470.199C438.793 471.104 438.058 471.838 437.153 471.838C436.25 471.838 435.515 471.104 435.515 470.199Z" fill="#333333"/>
<path d="M431.714 466.388C430.807 466.388 430.074 465.656 430.074 464.75C430.074 463.843 430.807 463.112 431.714 463.112H442.669C443.575 463.112 444.307 463.843 444.307 464.75C444.307 465.656 443.575 466.388 442.669 466.388H431.714Z" fill="#333333"/>
<path d="M256.749 534.202V538.015C256.749 538.92 257.484 539.65 258.387 539.65C259.292 539.65 260.025 538.92 260.025 538.015V534.202H263.9C264.805 534.202 265.539 533.468 265.539 532.563C265.539 531.658 264.805 530.926 263.9 530.926H260.025V527.059C260.025 526.154 259.292 525.421 258.387 525.421C257.484 525.421 256.749 526.154 256.749 527.059V530.926H252.945C252.04 530.926 251.308 531.658 251.308 532.563C251.308 533.468 252.04 534.202 252.945 534.202H256.749Z" fill="#F39313"/>
<path d="M30.4809 443.108C30.4824 444.918 31.9455 446.382 33.7527 446.384C35.5628 446.382 37.0259 444.918 37.0303 443.108C37.0259 441.301 35.5628 439.839 33.7527 439.834C31.9455 439.839 30.4824 441.301 30.4809 443.108ZM27.2034 443.108C27.2034 439.491 30.1339 436.557 33.7527 436.556C37.3729 436.557 40.3049 439.491 40.3049 443.108H40.3078C40.3049 446.728 37.3729 449.662 33.7527 449.662C30.1354 449.662 27.2034 446.728 27.2034 443.108Z" fill="#333333"/>
<path d="M248.107 74.8882C248.11 76.6954 249.575 78.1599 251.385 78.1643C253.192 78.1599 254.657 76.6954 254.661 74.8882H254.66C254.657 73.0781 253.192 71.6149 251.385 71.6135C249.575 71.6149 248.11 73.0781 248.107 74.8882ZM244.831 74.8882C244.831 71.2694 247.765 68.3374 251.385 68.3374C255.002 68.3374 257.933 71.2694 257.936 74.8882C257.933 78.5069 255.002 81.4375 251.385 81.4375C247.765 81.4375 244.831 78.5069 244.831 74.8882Z" fill="#F39313"/>
<path d="M618.667 522.658C618.67 524.465 620.132 525.929 621.943 525.933C623.749 525.929 625.213 524.467 625.216 522.658C625.213 520.85 623.749 519.386 621.943 519.381C620.134 519.386 618.67 520.85 618.667 522.658ZM615.392 522.658C615.392 519.039 618.323 516.107 621.943 516.107C625.56 516.107 628.491 519.039 628.491 522.658H628.493C628.491 526.276 625.56 529.208 621.943 529.212C618.323 529.208 615.392 526.278 615.392 522.658Z" fill="#333333"/>
<path d="M509.778 6.81898C509.782 8.62475 511.244 10.0893 513.053 10.0937C514.861 10.0893 516.327 8.62475 516.329 6.81898C516.327 5.00887 514.861 3.5443 513.053 3.54141C511.244 3.5443 509.782 5.00887 509.778 6.81898ZM506.503 6.81898C506.503 3.19876 509.434 0.266731 513.053 0.26384C516.673 0.266731 519.603 3.19876 519.605 6.81898H519.603C519.603 10.4363 516.673 13.3654 513.053 13.3683C509.434 13.3654 506.503 10.4363 506.503 6.81898Z" fill="#333333"/>
</svg>
