<svg width="14" height="14" viewBox="0 0 14 14" fill="none" xmlns="http://www.w3.org/2000/svg">
<path d="M13.956 6.22287C13.9339 6.0261 13.7044 5.87807 13.5059 5.87807C12.8645 5.87807 12.2953 5.5016 12.0565 4.91891C11.8128 4.32224 11.9701 3.62652 12.4479 3.18811C12.5985 3.05049 12.6168 2.82006 12.4906 2.6601C12.1622 2.24318 11.7891 1.86653 11.3817 1.54013C11.2223 1.41226 10.988 1.43006 10.8497 1.58318C10.4324 2.04526 9.68294 2.21697 9.10376 1.97533C8.50127 1.72183 8.12098 1.11111 8.15834 0.455591C8.17063 0.249556 8.01999 0.0705244 7.81468 0.0466091C7.29174 -0.013936 6.76421 -0.0156918 6.23976 0.042492C6.03705 0.0648937 5.88654 0.239687 5.89326 0.443119C5.91596 1.09222 5.53137 1.69216 4.93469 1.93658C4.36247 2.17035 3.61818 1.99991 3.20181 1.54189C3.06419 1.39101 2.83406 1.37248 2.67355 1.49763C2.25409 1.82681 1.87259 2.20371 1.54116 2.61723C1.41202 2.77798 1.43109 3.01095 1.58288 3.14906C2.07021 3.59037 2.22733 4.29209 1.9743 4.89572C1.73273 5.4712 1.1352 5.84192 0.451213 5.84192C0.229252 5.83477 0.0712878 5.9839 0.0467668 6.18575C-0.0147478 6.71147 -0.0154138 7.24741 0.0438 7.77742C0.0658993 7.97504 0.30221 8.1218 0.502859 8.1218C1.11256 8.1063 1.69755 8.4835 1.94331 9.0809C2.18785 9.67757 2.03043 10.373 1.55175 10.812C1.40203 10.9496 1.38289 11.1795 1.50931 11.3393C1.83438 11.7536 2.20783 12.1305 2.61651 12.4597C2.77696 12.5889 3.0103 12.5708 3.14938 12.4175C3.56823 11.9543 4.31761 11.7829 4.89443 12.025C5.49868 12.2779 5.87879 12.8885 5.84167 13.5442C5.8295 13.7503 5.9805 13.9298 6.18509 13.9532C6.4527 13.9845 6.7217 14 6.99156 14C7.24767 14 7.50384 13.986 7.76001 13.9575C7.96295 13.9351 8.11323 13.7601 8.10639 13.5566C8.08296 12.9078 8.46839 12.3078 9.06434 12.0639C9.64038 11.8286 10.3813 12.0008 10.798 12.4582C10.9363 12.6087 11.165 12.627 11.3262 12.5024C11.745 12.174 12.1257 11.7973 12.4586 11.3827C12.5879 11.2223 12.5695 10.989 12.4169 10.8506C11.9297 10.4096 11.7717 9.7076 12.0247 9.10457C12.2626 8.53684 12.8379 8.15565 13.4566 8.15565L13.5432 8.15795C13.7441 8.17424 13.9287 8.01954 13.953 7.8146C14.0148 7.2884 14.0155 6.75306 13.956 6.22287ZM6.99997 11.0356C4.7711 11.0356 2.96435 9.22887 2.96435 7.00009C2.96435 4.7713 4.77116 2.96458 6.99997 2.96458C9.22879 2.96458 11.0356 4.7713 11.0356 7.00009C11.0356 7.7566 10.827 8.46419 10.4648 9.06927L8.69768 7.30215C8.82561 7.00051 8.89318 6.67351 8.89312 6.33603C8.89312 5.67518 8.63574 5.05393 8.16839 4.5867C7.70115 4.11947 7.07989 3.86216 6.41916 3.86216C6.19865 3.86216 5.97917 3.89146 5.76684 3.94928C5.67384 3.97465 5.59779 4.0513 5.57303 4.14448C5.54772 4.23978 5.57624 4.33744 5.65071 4.41197C5.65071 4.41197 6.52311 5.29108 6.81501 5.58291C6.84558 5.61348 6.84552 5.68644 6.84122 5.71272L6.8385 5.73191C6.80907 6.0528 6.75234 6.43799 6.70554 6.58602C6.69924 6.59225 6.69331 6.59752 6.68689 6.60394C6.68017 6.61066 6.67399 6.61714 6.66752 6.6238C6.51754 6.67193 6.12642 6.72933 5.80044 6.75851L5.8005 6.75675L5.78585 6.76045C5.78324 6.76075 5.7784 6.76111 5.77198 6.76111C5.73674 6.76111 5.68492 6.75125 5.63781 6.7042C5.33399 6.40039 4.4958 5.5682 4.4958 5.5682C4.4206 5.49324 4.34346 5.4775 4.29206 5.4775C4.17224 5.4775 4.06495 5.56408 4.03117 5.68826C3.80043 6.54212 4.04503 7.46059 4.66968 8.08529C5.13704 8.55258 5.75836 8.8099 6.41922 8.8099C6.7567 8.8099 7.08371 8.74239 7.38529 8.61446L9.17157 10.4007C8.54444 10.802 7.79972 11.0356 6.99997 11.0356Z" fill="#0872EE"/>
</svg>
